<svg width="362" height="350" viewBox="0 0 362 350" fill="none" xmlns="http://www.w3.org/2000/svg">
<path d="M111.788 56.5842C112.046 59.3887 112.108 62.2077 111.974 65.0209C111.903 66.4444 111.749 67.8626 111.515 69.2685C111.386 69.9899 111.213 70.7025 110.995 71.4023C110.881 71.7687 110.744 72.1272 110.584 72.4758L110.387 72.9149C110.34 73.0369 110.302 73.1624 110.275 73.2903C110.115 74.4675 110.381 75.663 111.024 76.6617C111.677 77.8128 112.453 78.8894 113.339 79.8725L114.011 80.6279L114.359 80.9963L114.535 81.1781C114.633 81.278 114.723 81.3858 114.804 81.5005C115.128 81.9659 115.266 82.5361 115.19 83.0983C115.152 83.3738 115.062 83.6398 114.927 83.8826C114.818 84.0628 114.699 84.2361 114.569 84.4015C113.659 85.7033 112.298 86.6221 110.751 86.9811L111.183 86.6259C109.987 88.909 108.659 91.1203 107.205 93.2487C105.807 95.4206 104.16 97.4217 102.297 99.2115C101.332 100.127 100.213 100.867 98.9917 101.396C98.3465 101.658 97.6622 101.81 96.9669 101.847C96.6116 101.86 96.2558 101.84 95.9041 101.788L94.9364 101.615C93.6381 101.386 92.3624 101.043 91.124 100.591C90.4721 100.344 89.8496 100.025 89.2681 99.6403C88.9456 99.4271 88.651 99.1745 88.391 98.8883C88.2401 98.7251 88.1094 98.5442 88.0018 98.3495C87.9378 98.2384 87.8843 98.1216 87.8418 98.0005C87.7751 97.822 87.7429 97.6325 87.7468 97.4419L89.1223 98.2174C87.3195 99.6997 85.8145 101.511 84.6874 103.554C84.1182 104.572 83.6572 105.646 83.3121 106.76C82.969 107.869 82.7201 109.005 82.5681 110.156L82.5592 110.212C82.5233 110.439 82.4174 110.649 82.2564 110.813C82.0954 110.977 81.8872 111.087 81.6609 111.127C81.4346 111.167 81.2015 111.135 80.994 111.036C80.7865 110.937 80.615 110.776 80.5034 110.576C79.1935 108.179 78.127 105.657 77.3199 103.048C76.4963 100.457 75.9365 97.7899 75.6491 95.0866C75.3386 92.3809 75.4124 89.6449 75.8685 86.9599C76.3089 84.2902 77.2366 81.7242 78.6053 79.3901C78.6193 79.3662 78.6423 79.3488 78.6691 79.3419C78.6959 79.3349 78.7243 79.3388 78.7483 79.3528C78.7695 79.3661 78.7855 79.3865 78.7934 79.4103C78.8014 79.4342 78.8008 79.46 78.7918 79.4835C78.3037 80.7062 77.905 81.9627 77.5986 83.2431C77.312 84.515 77.1132 85.8052 77.0036 87.1044C76.827 89.6945 76.9514 92.2963 77.3741 94.8577C77.8094 97.4166 78.4663 99.9328 79.3376 102.378C80.1854 104.816 81.2185 107.185 82.4278 109.466L80.3632 109.885C80.7129 107.29 81.5833 104.791 82.922 102.541C83.5788 101.421 84.3455 100.37 85.2107 99.402C86.0737 98.4107 87.0525 97.5266 88.1262 96.7687L89.5019 97.5443C89.5012 97.3689 89.4932 97.4595 89.4987 97.4526C89.5065 97.4828 89.518 97.512 89.5332 97.5393C89.5742 97.6268 89.6271 97.7083 89.6902 97.7815C89.8501 97.9759 90.0338 98.1494 90.2369 98.2979C90.704 98.6398 91.2062 98.931 91.735 99.1664C92.8571 99.6808 94.0221 100.096 95.2165 100.408C97.519 101.348 99.9257 100.274 101.82 98.6636C103.708 96.9893 105.332 95.0382 106.635 92.8769C107.956 90.7225 109.096 88.4614 110.041 86.1171C110.074 86.0352 110.126 85.9619 110.192 85.9028C110.258 85.8437 110.336 85.8005 110.422 85.7762L110.473 85.7617C111.649 85.3687 112.638 84.5563 113.253 83.4799C113.329 83.3632 113.399 83.2424 113.463 83.1181C113.49 83.0507 113.504 82.9787 113.505 82.9059C113.507 82.7664 113.462 82.6303 113.376 82.5199C113.354 82.4935 113.33 82.4684 113.304 82.445L113.107 82.2596L112.717 81.8829C112.46 81.6287 112.206 81.371 111.961 81.1042C110.953 80.0272 110.088 78.8249 109.387 77.5269C108.55 76.1221 108.261 74.4576 108.577 72.853C108.634 72.642 108.708 72.4358 108.797 72.2361L109.051 71.7292C109.196 71.4489 109.323 71.1594 109.43 70.8626C109.656 70.2367 109.843 69.5976 109.991 68.9487C110.307 67.6132 110.554 66.2623 110.73 64.9013C111.112 62.1594 111.371 59.3777 111.579 56.5878C111.581 56.5601 111.593 56.5342 111.614 56.5157C111.634 56.4972 111.662 56.4876 111.689 56.4891C111.714 56.4909 111.738 56.5014 111.756 56.5188C111.774 56.5362 111.785 56.5593 111.788 56.5842V56.5842Z" fill="white"/>
<path d="M81.4658 83.9426C81.8262 85.882 82.4365 87.7665 83.2814 89.549C83.7033 90.4122 84.2268 91.2218 84.8407 91.9608C85.483 92.7177 86.1933 93.4142 86.9627 94.0414C85.9569 93.7495 85.0312 93.2314 84.2562 92.5269C83.4656 91.8201 82.8184 90.9677 82.3499 90.0163C81.8865 89.0746 81.571 88.0672 81.4144 87.0294C81.2453 86.0058 81.2627 84.96 81.4658 83.9426V83.9426Z" fill="white"/>
<path d="M78.6985 79.4367C70.8259 97.9551 81.4656 110.021 81.4656 110.021C61.9971 105.832 51.8886 117.547 51.8886 117.547C46.6429 106.322 34.5504 107.975 34.5504 107.975C34.5504 107.975 27.1361 100.305 36.5959 94.0414C43.2177 89.6567 44.0768 85.5852 43.9962 83.5369C43.8845 81.687 44.1026 79.8319 44.6403 78.0584C45.4794 75.4881 46.7489 73.079 48.3948 70.9339C51.0975 67.4663 53.1292 63.5245 54.3853 59.3113C57.0781 50.0293 63.4488 35.252 76.5849 36.1326C79.9093 35.818 83.2618 35.9903 86.5364 36.6439C91.0348 37.5989 95.3135 39.3913 99.1494 41.9277C103.909 44.8692 108.12 48.6183 111.592 53.0066C111.994 56.7762 111.157 60.5742 109.206 63.8246C105.661 69.5567 99.6181 71.2965 96.2565 71.8245C95.1141 72.0242 93.9395 71.9269 92.8455 71.5419C91.7515 71.157 90.7749 70.4973 90.0093 69.6262C89.4679 68.9854 89.0605 68.2424 88.8113 67.4414C88.5029 66.2682 87.9598 65.1696 87.2149 64.2121C86.47 63.2546 85.5388 62.458 84.4774 61.8705C81.8539 60.572 78.6426 60.9644 77.1193 68.8581C75.8513 75.4283 77.0259 78.2829 78.6985 79.4367Z" fill="white"/>
<path d="M197.835 194.644C194.276 195.265 190.684 195.681 187.076 195.891C183.489 196.13 179.902 196.256 176.314 196.27C172.726 196.289 169.137 196.175 165.549 195.958C161.94 195.77 158.345 195.373 154.782 194.769C158.342 194.144 161.935 193.726 165.542 193.517C169.129 193.28 172.717 193.145 176.304 193.143C179.892 193.13 183.48 193.235 187.068 193.459C190.677 193.648 194.272 194.043 197.835 194.644Z" fill="white"/>
<path d="M116.348 194.998C109.331 195.583 102.293 195.888 95.2515 196.099L92.6104 196.179L91.2897 196.215C90.8269 196.241 90.3628 196.231 89.9015 196.186C87.8673 196.02 85.909 195.339 84.2111 194.206C82.5984 193.138 81.1632 191.823 79.9579 190.31C78.7464 188.84 77.7004 187.242 76.8389 185.544C76.8071 185.481 76.7808 185.416 76.7603 185.348L76.7387 185.276C74.6843 178.379 72.5849 171.473 70.4403 164.56C69.3442 161.111 68.2063 157.672 67.0266 154.244L65.1397 149.147L63.1106 144.105C61.7009 140.767 60.2476 137.447 58.6999 134.17C57.1566 130.891 55.5201 127.655 53.8851 124.421C52.2343 121.195 50.5511 117.988 48.8356 114.799C48.1589 113.441 47.1296 112.289 45.8556 111.465C44.5815 110.641 43.1094 110.174 41.5932 110.113L30.856 110.514C27.213 110.622 23.5655 110.692 19.9029 110.681C16.236 110.617 12.5772 110.509 8.81976 110.077C7.87833 109.953 6.93018 109.805 5.94416 109.588C5.42475 109.476 4.91169 109.337 4.4072 109.17C3.72642 108.961 3.08687 108.635 2.51659 108.208C2.27151 108.011 2.05391 107.783 1.86962 107.528C1.60291 107.154 1.42843 106.722 1.36039 106.267C1.33135 106.024 1.33019 105.778 1.35695 105.534L1.43047 105.183C1.47565 104.959 1.54189 104.741 1.62828 104.53C1.76455 104.195 1.93381 103.874 2.13359 103.572C2.2956 103.312 2.47659 103.064 2.67506 102.831C3.34944 102.037 4.09413 101.306 4.90003 100.647C7.85292 98.3775 10.9525 96.3056 14.1786 94.4448L23.5666 88.9577C25.1084 88.0389 26.6408 87.0988 28.0786 86.1007C28.4475 85.8523 28.7758 85.599 29.1405 85.3349L30.346 84.4943C30.7661 84.2433 31.2014 84.0172 31.6266 83.7816C32.063 83.5659 32.5198 83.3915 32.9654 83.2035C34.7684 82.555 36.6772 82.2509 38.5925 82.307C40.4619 82.327 42.3132 82.6752 44.062 83.3358C44.1105 83.3546 44.1502 83.3908 44.1734 83.4373C44.1965 83.4839 44.2014 83.5374 44.1872 83.5874C44.1729 83.6374 44.1404 83.6802 44.0962 83.7075C44.0519 83.7348 43.999 83.7445 43.948 83.7348L43.9292 83.7312C40.4826 82.9863 36.8864 83.4024 33.701 84.9146C33.3346 85.1289 32.9535 85.3096 32.5988 85.5349L31.5672 86.2544L30.6163 87.0725C30.2749 87.3773 29.9151 87.7156 29.5585 88.0119C28.127 89.2346 26.633 90.3019 25.145 91.3757C22.1689 93.5148 19.1137 95.4795 16.1415 97.5272C13.1752 99.4495 10.3289 101.551 7.61856 103.82C7.03197 104.324 6.49032 104.878 5.99968 105.475C5.90457 105.588 5.82024 105.709 5.7478 105.837C5.69665 105.913 5.65418 105.995 5.62116 106.08C5.58656 106.128 5.63916 106.08 5.62772 106.078C5.62814 106.071 5.62581 106.063 5.62116 106.057C5.64116 105.926 5.64012 105.793 5.61812 105.663C5.58931 105.341 5.44012 105.042 5.20041 104.826C5.14885 104.787 5.43714 104.947 5.75332 105.031C6.1137 105.138 6.47947 105.225 6.84908 105.294C7.63873 105.447 8.48743 105.561 9.34679 105.65C12.7998 106.043 16.4024 106.173 19.9862 106.263C23.5775 106.387 27.1861 106.432 30.7972 106.437L36.2173 106.414L38.9287 106.381C39.8437 106.382 40.6715 106.316 41.8176 106.392C43.9461 106.546 45.9907 107.285 47.7257 108.528C49.4607 109.771 50.8185 111.469 51.6494 113.434C53.1066 116.771 54.5127 120.127 55.9103 123.484L60.067 133.566L64.2791 143.614C69.8411 157.007 76.4548 170.098 80.3206 184.242L80.2207 183.974C81.5817 186.865 83.6098 189.392 86.1382 191.345C87.3261 192.234 88.7215 192.804 90.1917 193.001C90.6011 193.061 91.0144 193.088 91.428 193.083L92.7378 193.133L95.3578 193.243C102.346 193.534 109.337 193.917 116.349 194.581C116.404 194.586 116.455 194.612 116.491 194.655C116.527 194.697 116.544 194.752 116.54 194.807C116.535 194.856 116.513 194.902 116.479 194.937C116.444 194.972 116.398 194.994 116.348 194.998Z" fill="white"/>
<path d="M160.457 185.291C166.203 185.131 171.947 185.039 177.692 184.949L186.308 184.807L190.616 184.749C192.114 184.705 193.613 184.799 195.094 185.032C198.092 185.511 200.968 186.568 203.563 188.143C204.228 188.548 204.801 188.942 205.407 189.336C206.057 189.758 206.68 190.22 207.271 190.72C209.679 192.793 211.403 195.545 212.217 198.616C212.42 199.382 212.565 200.163 212.649 200.951C212.706 201.344 212.711 201.741 212.737 202.137L212.771 203.224L212.983 211.839L213.376 229.069L213.689 246.299C213.906 257.786 214.027 269.274 214.053 280.764L214.014 297.999L214 302.308C213.993 303.035 214.006 303.725 213.982 304.483C213.905 308.43 212.347 312.203 209.617 315.054C207.461 317.303 204.67 318.839 201.617 319.457C200.138 319.714 198.636 319.819 197.135 319.77L192.823 319.774L175.578 319.752C164.083 319.725 152.589 319.616 141.096 319.426C129.603 319.208 118.103 319.023 106.611 318.517C95.1191 318.035 83.6182 317.493 72.1465 316.483C69.2767 316.257 66.4125 315.956 63.5446 315.696C60.6794 315.444 57.8077 315.13 54.9336 314.802L50.6236 314.318L49.5465 314.193L49.0079 314.131C48.8706 314.114 48.7344 314.088 48.6001 314.055L48.2615 313.971C47.4381 313.741 46.6415 313.425 45.8851 313.026C44.3844 312.24 43.0517 311.168 41.9618 309.87C40.8996 308.574 40.078 307.098 39.536 305.512C38.6312 302.491 38.3557 299.317 38.7264 296.185C38.9185 293.451 38.935 290.576 38.9344 287.741C38.9048 282.047 38.6968 276.335 38.374 270.631C38.0372 264.927 37.619 259.227 37.1194 253.531C36.616 247.837 35.9528 242.158 35.2612 236.484C34.5616 230.811 33.7538 225.153 32.8377 219.51C31.8933 213.874 30.8886 208.247 29.7506 202.647C27.5317 191.436 24.7139 180.352 21.3094 169.442C19.616 163.986 17.7356 158.594 15.7455 153.238C13.6571 147.925 11.5139 142.621 9.0067 137.486C7.828 134.881 6.45151 132.378 5.1672 129.823C3.74868 127.27 2.57331 124.589 1.65662 121.816C0.781177 119.026 0.237491 116.143 0.0368032 113.226C-0.0749861 111.745 0.0683512 110.256 0.460566 108.824C0.666569 108.09 1.02745 107.408 1.51892 106.825C2.02818 106.25 2.68778 105.828 3.42363 105.607C3.44946 105.597 3.47688 105.593 3.50434 105.595C3.53179 105.596 3.55874 105.602 3.58361 105.614C3.60848 105.626 3.63079 105.642 3.64926 105.663C3.66772 105.683 3.68197 105.707 3.69119 105.733C3.70042 105.759 3.70444 105.786 3.70302 105.814C3.70159 105.841 3.69474 105.868 3.68288 105.893C3.67101 105.918 3.65436 105.94 3.63388 105.958C3.61341 105.976 3.5895 105.99 3.56355 106L3.5495 106.005C2.91956 106.253 2.36442 106.66 1.93777 107.186C1.51111 107.712 1.22735 108.339 1.11396 109.007C0.836259 110.372 0.783352 111.774 0.957322 113.157C1.29107 115.966 1.95311 118.726 2.92988 121.38C3.94938 124.02 5.21541 126.557 6.71114 128.959C8.14843 131.462 9.60172 133.962 10.8944 136.544C16.2232 146.805 20.7421 157.467 24.41 168.431C31.6742 190.379 36.7861 212.981 39.6734 235.919C41.1322 247.371 42.2065 258.873 42.7152 270.412C42.9705 276.183 43.1103 281.958 43.0693 287.753C43.0321 290.661 42.9871 293.535 42.7406 296.529C42.6639 297.327 42.6539 297.891 42.6047 298.58C42.557 299.231 42.5583 299.885 42.6084 300.536C42.6585 301.798 42.8747 303.047 43.2514 304.253C43.9653 306.555 45.5466 308.49 47.6611 309.647C48.1724 309.926 48.7116 310.151 49.2698 310.317L49.4535 310.365C49.4921 310.379 49.5328 310.387 49.5739 310.389L50.1045 310.457L51.1657 310.593L55.4089 311.153C58.235 311.538 61.0667 311.909 63.9186 312.221C66.7657 312.541 69.6084 312.903 72.46 313.189C83.8616 314.377 95.2881 315.422 106.736 316.237C129.633 317.869 152.579 318.591 175.574 318.4C181.315 318.353 187.056 318.218 192.794 318.06L197.097 317.904C198.47 317.904 199.839 317.764 201.183 317.486C202.474 317.157 203.714 316.653 204.868 315.988C205.998 315.294 207.025 314.446 207.92 313.468C209.689 311.504 210.821 309.05 211.167 306.429C211.256 305.783 211.295 305.131 211.285 304.479C211.285 303.802 211.247 303.054 211.23 302.346L211.097 298.039L210.582 280.811C210.299 269.325 210.104 257.838 209.996 246.349L209.833 229.117L209.75 211.883L209.724 203.266L209.722 202.2C209.707 201.879 209.717 201.556 209.678 201.237C209.628 200.594 209.529 199.957 209.382 199.33C209.083 198.07 208.598 196.861 207.945 195.743C207.281 194.624 206.457 193.608 205.498 192.728C205.005 192.287 204.484 191.877 203.938 191.502L202.203 190.298C199.927 188.795 197.38 187.749 194.705 187.217C193.355 186.952 191.983 186.814 190.607 186.805L186.298 186.667L177.682 186.367C171.939 186.172 166.195 185.973 160.453 185.708C160.399 185.705 160.348 185.682 160.311 185.643C160.274 185.604 160.253 185.551 160.254 185.497C160.254 185.443 160.276 185.392 160.313 185.353C160.351 185.315 160.403 185.292 160.457 185.291L160.457 185.291Z" fill="white"/>
<path d="M201.983 207.207L202.091 210.334C202.092 210.356 202.088 210.378 202.081 210.399C202.073 210.42 202.061 210.439 202.046 210.456C202.031 210.472 202.012 210.485 201.992 210.494C201.972 210.504 201.95 210.509 201.928 210.509C201.905 210.51 201.883 210.507 201.862 210.499C201.841 210.491 201.822 210.479 201.806 210.464C201.79 210.449 201.776 210.43 201.767 210.41C201.758 210.39 201.753 210.368 201.752 210.346L201.752 210.339L201.774 207.21C201.774 207.183 201.785 207.156 201.804 207.137C201.824 207.118 201.85 207.107 201.877 207.106C201.904 207.106 201.931 207.116 201.95 207.135C201.97 207.154 201.982 207.18 201.983 207.207Z" fill="white"/>
<path d="M202.198 213.461L202.29 216.588C202.292 216.625 202.286 216.662 202.273 216.697C202.26 216.732 202.24 216.764 202.214 216.791C202.189 216.819 202.158 216.84 202.124 216.856C202.09 216.871 202.054 216.88 202.016 216.881C201.979 216.882 201.942 216.875 201.907 216.862C201.872 216.849 201.841 216.829 201.814 216.803C201.787 216.778 201.765 216.747 201.75 216.713C201.735 216.679 201.726 216.642 201.725 216.605L201.725 216.596L201.732 213.467C201.732 213.406 201.756 213.348 201.799 213.304C201.842 213.261 201.901 213.236 201.962 213.235C202.023 213.234 202.082 213.257 202.126 213.299C202.17 213.342 202.196 213.4 202.198 213.461V213.461Z" fill="white"/>
<path d="M202.383 219.715L202.476 222.842C202.479 222.944 202.442 223.042 202.372 223.116C202.303 223.19 202.207 223.233 202.106 223.236C202.004 223.239 201.906 223.201 201.832 223.132C201.758 223.062 201.715 222.966 201.712 222.865L201.712 222.853L201.718 219.724C201.719 219.637 201.753 219.553 201.815 219.491C201.876 219.429 201.959 219.394 202.047 219.393C202.134 219.391 202.218 219.425 202.281 219.485C202.344 219.545 202.381 219.628 202.383 219.715V219.715Z" fill="white"/>
<path d="M202.569 225.969L202.662 229.096C202.665 229.223 202.617 229.346 202.53 229.438C202.442 229.53 202.322 229.584 202.195 229.588C202.068 229.591 201.945 229.545 201.852 229.458C201.759 229.372 201.704 229.252 201.699 229.125L201.699 229.11L201.706 225.981C201.706 225.868 201.751 225.76 201.831 225.68C201.911 225.599 202.019 225.554 202.132 225.552C202.245 225.551 202.354 225.593 202.436 225.671C202.518 225.749 202.566 225.856 202.569 225.969H202.569Z" fill="white"/>
<path d="M202.742 232.224L202.817 235.351C202.821 235.497 202.766 235.639 202.665 235.744C202.565 235.85 202.426 235.911 202.28 235.915C202.134 235.918 201.993 235.864 201.887 235.763C201.781 235.662 201.72 235.524 201.717 235.378V235.366L201.705 232.238C201.705 232.101 201.758 231.97 201.854 231.873C201.95 231.775 202.08 231.719 202.217 231.718C202.353 231.716 202.485 231.768 202.584 231.863C202.682 231.957 202.739 232.087 202.742 232.224V232.224Z" fill="white"/>
<path d="M202.892 238.479L202.968 241.606C202.971 241.769 202.91 241.927 202.798 242.044C202.686 242.162 202.531 242.231 202.368 242.235C202.205 242.239 202.048 242.178 201.93 242.065C201.812 241.953 201.743 241.798 201.739 241.635L201.739 241.623L201.728 238.495C201.727 238.341 201.787 238.194 201.895 238.084C202.002 237.974 202.149 237.912 202.302 237.91C202.456 237.908 202.604 237.966 202.714 238.073C202.825 238.179 202.889 238.325 202.892 238.479V238.479Z" fill="white"/>
<path d="M203.042 244.733L203.117 247.861C203.12 247.95 203.104 248.038 203.072 248.121C203.04 248.204 202.992 248.28 202.93 248.345C202.869 248.409 202.795 248.461 202.714 248.497C202.633 248.533 202.545 248.552 202.456 248.555C202.367 248.557 202.278 248.541 202.195 248.509C202.112 248.477 202.036 248.429 201.972 248.368C201.908 248.306 201.856 248.233 201.82 248.151C201.784 248.07 201.764 247.982 201.762 247.893L201.762 247.879L201.75 244.751C201.75 244.581 201.816 244.417 201.936 244.296C202.055 244.175 202.217 244.105 202.388 244.103C202.558 244.1 202.722 244.165 202.845 244.283C202.967 244.401 203.038 244.563 203.042 244.733V244.733Z" fill="white"/>
<path d="M203.192 250.988L203.267 254.115C203.27 254.213 203.253 254.31 203.218 254.401C203.183 254.492 203.131 254.575 203.064 254.646C202.996 254.717 202.916 254.773 202.827 254.813C202.737 254.852 202.641 254.874 202.544 254.876C202.446 254.879 202.349 254.862 202.258 254.827C202.167 254.791 202.084 254.739 202.014 254.671C201.943 254.604 201.887 254.523 201.847 254.434C201.808 254.345 201.787 254.248 201.785 254.151L201.784 254.136L201.773 251.008C201.772 250.821 201.845 250.641 201.976 250.507C202.108 250.374 202.286 250.298 202.473 250.295C202.66 250.292 202.841 250.364 202.975 250.494C203.11 250.623 203.188 250.801 203.192 250.988V250.988Z" fill="white"/>
<path d="M203.342 257.243L203.402 260.37C203.406 260.58 203.326 260.782 203.181 260.932C203.036 261.083 202.837 261.17 202.627 261.174C202.418 261.178 202.216 261.099 202.065 260.954C201.914 260.809 201.827 260.61 201.822 260.4V260.392L201.796 257.264C201.794 257.06 201.873 256.863 202.016 256.716C202.159 256.57 202.354 256.486 202.558 256.483C202.763 256.481 202.96 256.559 203.107 256.701C203.254 256.844 203.339 257.038 203.342 257.243V257.243Z" fill="white"/>
<path d="M203.458 263.498L203.515 266.626C203.518 266.842 203.435 267.05 203.285 267.205C203.135 267.361 202.929 267.45 202.713 267.454C202.497 267.458 202.289 267.376 202.133 267.226C201.977 267.076 201.887 266.871 201.883 266.655V266.648L201.852 263.52C201.851 263.308 201.933 263.103 202.081 262.952C202.23 262.8 202.432 262.713 202.644 262.71C202.857 262.707 203.061 262.788 203.214 262.936C203.366 263.084 203.454 263.286 203.458 263.498Z" fill="white"/>
<path d="M203.571 269.753L203.627 272.881C203.631 273.104 203.546 273.32 203.391 273.48C203.236 273.641 203.023 273.734 202.8 273.738C202.577 273.742 202.361 273.657 202.2 273.502C202.04 273.347 201.947 273.134 201.943 272.911V272.904L201.913 269.776C201.91 269.556 201.995 269.345 202.148 269.188C202.301 269.031 202.511 268.94 202.73 268.937C202.95 268.934 203.162 269.019 203.319 269.172C203.477 269.324 203.567 269.534 203.571 269.753Z" fill="white"/>
<path d="M203.683 276.008L203.739 279.136C203.743 279.366 203.656 279.588 203.496 279.754C203.336 279.919 203.117 280.015 202.887 280.019C202.657 280.023 202.434 279.936 202.269 279.776C202.103 279.616 202.008 279.397 202.004 279.167V279.16L201.973 276.032C201.971 275.806 202.058 275.588 202.216 275.426C202.374 275.264 202.59 275.171 202.816 275.168C203.043 275.165 203.261 275.252 203.423 275.409C203.586 275.567 203.679 275.782 203.683 276.008V276.008Z" fill="white"/>
<path d="M203.795 282.264L203.851 285.391C203.853 285.509 203.832 285.625 203.789 285.734C203.747 285.844 203.682 285.943 203.601 286.028C203.519 286.112 203.422 286.18 203.314 286.227C203.207 286.274 203.091 286.299 202.974 286.301C202.856 286.303 202.74 286.282 202.631 286.239C202.521 286.196 202.422 286.132 202.337 286.051C202.253 285.969 202.185 285.872 202.138 285.764C202.091 285.657 202.066 285.541 202.064 285.423V285.416L202.034 282.288C202.032 282.055 202.122 281.831 202.285 281.665C202.448 281.498 202.67 281.403 202.902 281.4C203.135 281.397 203.36 281.486 203.527 281.647C203.694 281.809 203.791 282.031 203.795 282.264V282.264Z" fill="white"/>
<path d="M203.908 288.519L203.964 291.647C203.966 291.767 203.945 291.888 203.901 292C203.857 292.113 203.791 292.216 203.707 292.303C203.623 292.39 203.523 292.46 203.412 292.508C203.301 292.557 203.181 292.583 203.06 292.585C202.939 292.587 202.819 292.565 202.707 292.521C202.594 292.477 202.491 292.411 202.404 292.327C202.318 292.242 202.248 292.142 202.2 292.031C202.152 291.92 202.126 291.801 202.124 291.68V291.672L202.094 288.544C202.091 288.304 202.184 288.073 202.352 287.901C202.52 287.729 202.748 287.631 202.988 287.628C203.228 287.624 203.46 287.716 203.632 287.883C203.804 288.05 203.903 288.279 203.908 288.519V288.519Z" fill="white"/>
<path d="M204.02 294.774L204.059 297.925C204.06 298.047 204.038 298.169 203.992 298.282C203.947 298.396 203.879 298.5 203.794 298.587C203.709 298.675 203.607 298.745 203.494 298.793C203.382 298.841 203.261 298.867 203.138 298.868C203.016 298.87 202.894 298.847 202.781 298.802C202.667 298.756 202.563 298.689 202.476 298.603C202.388 298.518 202.318 298.416 202.27 298.304C202.222 298.191 202.196 298.07 202.195 297.948L202.194 297.905L202.154 294.8C202.153 294.677 202.175 294.556 202.22 294.442C202.265 294.328 202.332 294.224 202.418 294.136C202.503 294.048 202.605 293.978 202.717 293.929C202.83 293.881 202.95 293.855 203.073 293.853C203.195 293.851 203.317 293.873 203.431 293.918C203.545 293.964 203.649 294.031 203.737 294.116C203.825 294.201 203.895 294.303 203.943 294.416C203.992 294.528 204.018 294.649 204.02 294.771V294.774Z" fill="white"/>
<path d="M203.605 301.244C203.318 302.327 202.899 303.37 202.356 304.349C202.24 304.561 202.044 304.718 201.812 304.785C201.58 304.853 201.33 304.825 201.118 304.709C200.907 304.592 200.75 304.396 200.682 304.164C200.615 303.932 200.642 303.682 200.759 303.471C201.223 302.62 201.58 301.716 201.821 300.778C201.852 300.661 201.905 300.551 201.977 300.454C202.05 300.357 202.141 300.276 202.246 300.214C202.35 300.153 202.465 300.112 202.585 300.095C202.705 300.078 202.827 300.085 202.944 300.115C203.061 300.145 203.172 300.198 203.268 300.271C203.365 300.344 203.447 300.435 203.508 300.539C203.57 300.644 203.61 300.759 203.627 300.879C203.644 300.999 203.637 301.121 203.607 301.238L203.605 301.244Z" fill="white"/>
<path d="M200.39 307.053C199.627 307.869 198.767 308.589 197.829 309.196C197.631 309.325 197.39 309.369 197.16 309.32C196.929 309.271 196.727 309.133 196.598 308.935C196.469 308.737 196.424 308.497 196.473 308.266C196.521 308.035 196.66 307.833 196.857 307.704C197.669 307.171 198.412 306.541 199.07 305.827C199.232 305.652 199.457 305.548 199.695 305.539C199.933 305.53 200.166 305.615 200.341 305.777C200.516 305.938 200.62 306.163 200.63 306.401C200.641 306.639 200.556 306.872 200.395 307.048L200.39 307.053Z" fill="white"/>
<path d="M194.823 310.65C193.765 311.008 192.667 311.235 191.553 311.324C191.323 311.343 191.095 311.27 190.919 311.121C190.743 310.972 190.633 310.759 190.614 310.529C190.595 310.3 190.668 310.072 190.817 309.896C190.966 309.72 191.179 309.61 191.408 309.591C192.378 309.507 193.333 309.303 194.253 308.985C194.362 308.947 194.478 308.931 194.593 308.938C194.709 308.945 194.822 308.974 194.926 309.025C195.03 309.075 195.123 309.146 195.2 309.232C195.276 309.318 195.335 309.419 195.373 309.528C195.411 309.638 195.427 309.753 195.42 309.869C195.413 309.984 195.384 310.097 195.333 310.201C195.283 310.305 195.212 310.398 195.126 310.475C195.039 310.551 194.939 310.61 194.829 310.648L194.823 310.65Z" fill="white"/>
<path d="M188.375 311.404L185.247 311.428C185.029 311.429 184.819 311.345 184.663 311.192C184.507 311.04 184.417 310.832 184.414 310.613C184.41 310.395 184.493 310.185 184.644 310.027C184.795 309.87 185.002 309.778 185.22 309.773L188.342 309.687C188.57 309.68 188.791 309.764 188.957 309.92C189.123 310.076 189.22 310.292 189.227 310.519C189.234 310.747 189.15 310.968 188.994 311.134C188.838 311.3 188.622 311.397 188.395 311.404L188.375 311.404Z" fill="white"/>
<path d="M182.121 311.44L178.993 311.444C178.792 311.445 178.599 311.366 178.456 311.225C178.313 311.084 178.232 310.892 178.23 310.691C178.228 310.49 178.305 310.296 178.445 310.152C178.585 310.008 178.776 309.925 178.977 309.921L182.1 309.851C182.204 309.849 182.308 309.866 182.406 309.904C182.503 309.941 182.593 309.997 182.668 310.069C182.744 310.141 182.805 310.227 182.848 310.323C182.89 310.418 182.913 310.521 182.916 310.626C182.918 310.73 182.9 310.834 182.863 310.932C182.825 311.029 182.769 311.118 182.697 311.194C182.625 311.27 182.538 311.33 182.443 311.373C182.347 311.415 182.244 311.438 182.14 311.44L182.121 311.44Z" fill="white"/>
<path d="M175.867 311.44L172.74 311.427C172.556 311.426 172.381 311.353 172.251 311.223C172.121 311.093 172.048 310.918 172.047 310.734C172.046 310.551 172.118 310.375 172.246 310.244C172.375 310.113 172.55 310.038 172.733 310.036L175.856 309.983C176.049 309.979 176.235 310.053 176.374 310.187C176.513 310.32 176.593 310.504 176.597 310.697C176.601 310.89 176.528 311.076 176.394 311.216C176.261 311.355 176.077 311.435 175.884 311.44L175.867 311.44Z" fill="white"/>
<path d="M169.612 311.405L166.483 311.375C166.317 311.373 166.158 311.306 166.042 311.188C165.925 311.07 165.86 310.911 165.86 310.745C165.86 310.58 165.925 310.42 166.042 310.303C166.159 310.185 166.317 310.118 166.483 310.117L169.608 310.08C169.696 310.078 169.783 310.093 169.865 310.125C169.947 310.156 170.021 310.204 170.085 310.265C170.148 310.325 170.198 310.398 170.233 310.478C170.268 310.559 170.287 310.645 170.288 310.733C170.289 310.821 170.273 310.908 170.241 310.989C170.208 311.07 170.16 311.144 170.098 311.207C170.037 311.269 169.963 311.319 169.883 311.353C169.802 311.387 169.715 311.405 169.627 311.405H169.612Z" fill="white"/>
<path d="M163.357 311.335L160.23 311.288C160.082 311.285 159.941 311.225 159.838 311.119C159.735 311.014 159.677 310.871 159.678 310.724C159.679 310.576 159.738 310.435 159.842 310.33C159.947 310.226 160.088 310.167 160.236 310.166L163.36 310.146C163.439 310.145 163.516 310.159 163.589 310.188C163.661 310.218 163.728 310.261 163.783 310.315C163.839 310.37 163.884 310.435 163.915 310.507C163.945 310.579 163.961 310.657 163.962 310.735C163.963 310.813 163.948 310.891 163.919 310.963C163.889 311.036 163.846 311.102 163.791 311.158C163.736 311.213 163.671 311.258 163.599 311.288C163.527 311.319 163.45 311.335 163.371 311.335L163.357 311.335Z" fill="white"/>
<path d="M157.102 311.231L153.974 311.167C153.845 311.163 153.722 311.109 153.633 311.016C153.543 310.923 153.494 310.798 153.495 310.669C153.497 310.54 153.549 310.416 153.641 310.325C153.732 310.234 153.856 310.183 153.985 310.182L157.111 310.178C157.251 310.178 157.385 310.233 157.484 310.331C157.583 310.43 157.639 310.563 157.64 310.703C157.64 310.843 157.585 310.977 157.487 311.076C157.389 311.175 157.255 311.231 157.115 311.232L157.102 311.231Z" fill="white"/>
<path d="M150.846 311.094L147.722 311.012C147.61 311.009 147.504 310.962 147.427 310.881C147.35 310.801 147.307 310.693 147.309 310.581C147.311 310.469 147.357 310.363 147.437 310.285C147.517 310.207 147.624 310.163 147.736 310.164L150.859 310.177C150.98 310.178 151.097 310.226 151.183 310.312C151.268 310.398 151.317 310.515 151.316 310.636C151.316 310.758 151.268 310.874 151.182 310.96C151.096 311.046 150.979 311.094 150.858 311.094L150.846 311.094Z" fill="white"/>
<path d="M144.597 310.937L141.471 310.859C141.367 310.856 141.269 310.812 141.198 310.737C141.126 310.662 141.088 310.561 141.09 310.458C141.092 310.354 141.135 310.256 141.21 310.184C141.285 310.112 141.385 310.073 141.488 310.074L144.613 310.126C144.666 310.127 144.718 310.138 144.767 310.159C144.816 310.18 144.861 310.21 144.898 310.249C144.935 310.287 144.964 310.332 144.984 310.381C145.004 310.431 145.014 310.484 145.013 310.537C145.012 310.591 145.001 310.643 144.98 310.692C144.959 310.741 144.928 310.785 144.89 310.823C144.852 310.86 144.807 310.889 144.757 310.909C144.708 310.928 144.655 310.938 144.601 310.937L144.597 310.937Z" fill="white"/>
<path d="M138.344 310.771L135.218 310.674C135.121 310.671 135.03 310.63 134.963 310.56C134.897 310.49 134.861 310.396 134.864 310.299C134.867 310.203 134.908 310.111 134.978 310.045C135.048 309.978 135.141 309.942 135.238 309.944L138.363 310.014C138.413 310.015 138.462 310.025 138.508 310.045C138.554 310.065 138.595 310.094 138.63 310.13C138.665 310.165 138.692 310.208 138.71 310.254C138.728 310.301 138.737 310.35 138.736 310.4C138.735 310.45 138.724 310.499 138.704 310.545C138.684 310.59 138.656 310.632 138.62 310.666C138.584 310.701 138.541 310.728 138.495 310.746C138.448 310.764 138.398 310.772 138.349 310.771L138.344 310.771Z" fill="white"/>
<path d="M132.091 310.568L128.964 310.453C128.875 310.45 128.79 310.411 128.729 310.346C128.668 310.28 128.635 310.193 128.638 310.104C128.641 310.014 128.68 309.929 128.745 309.868C128.811 309.807 128.898 309.774 128.987 309.777L132.113 309.866C132.159 309.867 132.205 309.877 132.247 309.895C132.289 309.914 132.328 309.941 132.36 309.974C132.391 310.008 132.417 310.047 132.433 310.09C132.45 310.134 132.458 310.18 132.457 310.226C132.456 310.272 132.445 310.318 132.426 310.36C132.408 310.402 132.381 310.441 132.347 310.472C132.313 310.504 132.274 310.529 132.231 310.546C132.187 310.562 132.141 310.57 132.095 310.569L132.091 310.568Z" fill="white"/>
<path d="M125.838 310.328L122.716 310.197C122.633 310.193 122.555 310.157 122.498 310.096C122.442 310.035 122.412 309.953 122.415 309.87C122.419 309.787 122.455 309.708 122.516 309.652C122.578 309.595 122.659 309.565 122.742 309.569L125.862 309.68C125.948 309.682 126.03 309.719 126.088 309.782C126.147 309.845 126.179 309.928 126.176 310.014C126.173 310.1 126.136 310.182 126.074 310.241C126.011 310.299 125.927 310.331 125.841 310.328L125.838 310.328Z" fill="white"/>
<path d="M119.593 310.076L116.469 309.945C116.425 309.943 116.382 309.932 116.342 309.914C116.303 309.895 116.267 309.869 116.237 309.837C116.207 309.804 116.184 309.767 116.169 309.725C116.154 309.684 116.147 309.64 116.149 309.596C116.151 309.552 116.162 309.509 116.18 309.47C116.199 309.43 116.225 309.394 116.257 309.364C116.289 309.334 116.327 309.311 116.368 309.296C116.41 309.281 116.454 309.274 116.497 309.276L116.501 309.276L119.622 309.428C119.707 309.431 119.788 309.469 119.847 309.533C119.905 309.596 119.935 309.68 119.931 309.766C119.928 309.852 119.89 309.933 119.827 309.991C119.763 310.049 119.679 310.08 119.593 310.076V310.076Z" fill="white"/>
<path d="M113.345 309.803L110.22 309.651C110.126 309.646 110.038 309.604 109.975 309.534C109.912 309.465 109.88 309.373 109.884 309.279C109.889 309.185 109.93 309.097 110 309.034C110.069 308.971 110.161 308.938 110.255 308.942L110.258 308.942L113.379 309.115C113.47 309.119 113.556 309.16 113.617 309.228C113.678 309.296 113.71 309.385 113.705 309.476C113.701 309.567 113.66 309.653 113.593 309.714C113.525 309.775 113.436 309.807 113.345 309.803L113.345 309.803Z" fill="white"/>
<path d="M107.096 309.487L103.971 309.313C103.922 309.31 103.874 309.297 103.83 309.276C103.785 309.255 103.746 309.225 103.713 309.188C103.68 309.151 103.655 309.109 103.639 309.062C103.622 309.016 103.615 308.967 103.618 308.917C103.621 308.868 103.633 308.82 103.655 308.776C103.676 308.731 103.706 308.692 103.742 308.659C103.779 308.626 103.822 308.601 103.868 308.584C103.915 308.568 103.964 308.561 104.013 308.564L104.017 308.564L107.137 308.759C107.234 308.765 107.323 308.809 107.387 308.881C107.451 308.953 107.484 309.048 107.478 309.144C107.473 309.24 107.43 309.33 107.358 309.394C107.286 309.459 107.192 309.492 107.096 309.487H107.096Z" fill="white"/>
<path d="M100.848 309.126L97.7236 308.937C97.6168 308.93 97.5171 308.881 97.4462 308.801C97.3754 308.721 97.3392 308.616 97.3456 308.509C97.3521 308.403 97.4007 308.303 97.4807 308.232C97.5607 308.161 97.6656 308.124 97.7724 308.131L97.7789 308.131L100.897 308.358C100.948 308.361 100.997 308.374 101.042 308.397C101.088 308.419 101.128 308.45 101.162 308.488C101.195 308.526 101.221 308.57 101.237 308.618C101.253 308.666 101.26 308.717 101.257 308.767C101.253 308.817 101.24 308.867 101.218 308.912C101.195 308.957 101.164 308.998 101.126 309.031C101.088 309.065 101.044 309.09 100.996 309.107C100.949 309.123 100.898 309.13 100.848 309.126H100.848Z" fill="white"/>
<path d="M94.6042 308.744L91.4786 308.538C91.4184 308.534 91.3597 308.519 91.3056 308.492C91.2516 308.465 91.2034 308.428 91.1637 308.383C91.0835 308.292 91.0429 308.172 91.0509 308.05C91.0588 307.929 91.1147 307.816 91.2062 307.736C91.2978 307.655 91.4174 307.615 91.5388 307.623L91.5488 307.624L94.6666 307.884C94.7802 307.893 94.8856 307.946 94.9598 308.033C95.0341 308.119 95.0711 308.231 95.0629 308.345C95.0546 308.459 95.0017 308.564 94.9158 308.639C94.8298 308.714 94.7178 308.752 94.6042 308.744V308.744Z" fill="white"/>
<path d="M88.356 308.32L85.2342 308.088C85.1667 308.083 85.1008 308.065 85.0403 308.035C84.9798 308.005 84.9259 307.963 84.8816 307.911C84.8374 307.86 84.8037 307.801 84.7824 307.737C84.7612 307.672 84.7528 307.605 84.7578 307.537C84.7628 307.47 84.7811 307.404 84.8116 307.344C84.8422 307.283 84.8843 307.229 84.9356 307.185C84.9869 307.141 85.0465 307.108 85.1108 307.087C85.1751 307.066 85.2429 307.058 85.3103 307.063L85.3217 307.064L88.4345 307.35C88.5625 307.361 88.681 307.423 88.7639 307.521C88.8469 307.619 88.8876 307.746 88.8773 307.874C88.8669 308.002 88.8062 308.121 88.7086 308.205C88.6109 308.288 88.4841 308.329 88.356 308.32V308.32Z" fill="white"/>
<path d="M82.1131 307.842L78.9932 307.582C78.8428 307.569 78.7036 307.498 78.6061 307.382C78.5087 307.267 78.461 307.118 78.4735 306.968C78.4861 306.817 78.5578 306.678 78.673 306.581C78.7882 306.483 78.9374 306.435 79.0877 306.448L79.1003 306.449L82.2102 306.764C82.3526 306.777 82.4839 306.847 82.5753 306.957C82.6668 307.067 82.7108 307.209 82.698 307.351C82.6852 307.494 82.6165 307.625 82.5069 307.717C82.3973 307.809 82.2557 307.854 82.1131 307.842V307.842Z" fill="white"/>
<path d="M75.8739 307.311L72.7556 307.024C72.5887 307.009 72.4348 306.928 72.3276 306.799C72.2204 306.67 72.1688 306.504 72.1842 306.337C72.1995 306.17 72.2805 306.016 72.4094 305.909C72.5382 305.802 72.7043 305.75 72.8712 305.766L72.887 305.767L75.9928 306.116C76.1502 306.133 76.2944 306.212 76.3942 306.335C76.4939 306.457 76.5411 306.615 76.5254 306.772C76.5098 306.93 76.4325 307.075 76.3105 307.175C76.1884 307.276 76.0315 307.325 75.8739 307.311V307.311Z" fill="white"/>
<path d="M69.6386 306.722L66.523 306.403C66.3395 306.384 66.1711 306.293 66.0546 306.15C65.9382 306.007 65.8833 305.824 65.902 305.641C65.9208 305.457 66.0117 305.289 66.1547 305.172C66.2977 305.056 66.4811 305.001 66.6645 305.02L66.6823 305.022L69.7835 305.403C69.9574 305.423 70.1161 305.512 70.225 305.649C70.334 305.786 70.3844 305.96 70.3652 306.134C70.3461 306.308 70.259 306.468 70.1229 306.578C69.9868 306.688 69.8127 306.74 69.6386 306.722V306.722Z" fill="white"/>
<path d="M63.4087 306.067L60.2919 305.712C60.1927 305.701 60.0965 305.671 60.0091 305.623C59.9216 305.574 59.8445 305.509 59.7822 305.431C59.7199 305.353 59.6736 305.264 59.6459 305.168C59.6183 305.072 59.6099 304.971 59.6212 304.872C59.6325 304.773 59.6633 304.677 59.7118 304.59C59.7603 304.502 59.8255 304.426 59.9038 304.364C59.982 304.301 60.0718 304.255 60.1678 304.228C60.2639 304.201 60.3644 304.193 60.4636 304.205L60.4832 304.207L63.5835 304.624C63.7739 304.648 63.9469 304.747 64.0648 304.898C64.1827 305.05 64.2359 305.242 64.2128 305.432C64.1897 305.623 64.0922 305.796 63.9416 305.915C63.791 306.034 63.5994 306.089 63.4087 306.067V306.067Z" fill="white"/>
<path d="M57.0539 305.157C55.986 304.78 54.9866 304.231 54.0945 303.534C53.9256 303.402 53.8159 303.209 53.7895 302.996C53.7631 302.784 53.8222 302.57 53.9538 302.401C54.0853 302.232 54.2786 302.122 54.4911 302.096C54.7035 302.069 54.9178 302.128 55.0867 302.26L55.0968 302.268C55.8439 302.868 56.6832 303.343 57.5822 303.675C57.7776 303.746 57.9371 303.891 58.0257 304.079C58.1143 304.267 58.1248 304.483 58.055 304.679C57.9852 304.875 57.8407 305.035 57.6531 305.124C57.4655 305.214 57.25 305.226 57.0539 305.157V305.157Z" fill="white"/>
<path d="M51.8066 301.05C51.1926 300.108 50.7157 299.085 50.3903 298.009C50.3574 297.902 50.3459 297.79 50.3563 297.679C50.3668 297.568 50.399 297.461 50.4511 297.362C50.5032 297.263 50.5742 297.176 50.6601 297.105C50.7459 297.034 50.845 296.98 50.9515 296.947C51.0581 296.915 51.1701 296.903 51.2811 296.914C51.3921 296.924 51.4999 296.956 51.5985 297.008C51.6971 297.06 51.7844 297.131 51.8555 297.217C51.9266 297.303 51.9801 297.402 52.013 297.509L52.0163 297.52C52.2825 298.447 52.6793 299.331 53.1947 300.146C53.3131 300.33 53.3538 300.553 53.3079 300.767C53.2621 300.981 53.1334 301.168 52.95 301.288C52.7666 301.407 52.5434 301.449 52.3291 301.405C52.1149 301.36 51.9271 301.232 51.8066 301.05V301.05Z" fill="white"/>
<path d="M49.783 294.759C49.6988 293.673 49.6987 292.583 49.7829 291.497C49.8019 291.262 49.9127 291.045 50.0912 290.892C50.2697 290.739 50.5015 290.663 50.7359 290.68C50.9704 290.698 51.1885 290.807 51.3428 290.984C51.4971 291.161 51.575 291.393 51.5596 291.627L51.5585 291.639C51.4678 292.633 51.4542 293.632 51.5177 294.628C51.5337 294.857 51.4584 295.083 51.3081 295.257C51.1578 295.431 50.9449 295.538 50.7157 295.556C50.4866 295.573 50.2599 295.499 50.0851 295.35C49.9103 295.201 49.8017 294.988 49.783 294.759L49.783 294.759Z" fill="white"/>
<path d="M49.9745 288.414L50.04 285.315L50.0404 285.293C50.0461 285.046 50.1496 284.812 50.328 284.641C50.5065 284.47 50.7454 284.377 50.9923 284.383C51.2392 284.388 51.4739 284.491 51.645 284.669C51.8161 284.847 51.9095 285.086 51.9048 285.333L51.9046 285.345L51.796 288.491C51.787 288.731 51.6837 288.958 51.5084 289.122C51.3332 289.286 51.1003 289.375 50.8602 289.368C50.6202 289.361 50.3925 289.26 50.2265 289.087C50.0606 288.913 49.9698 288.681 49.974 288.441L49.9745 288.414Z" fill="white"/>
<path d="M50.047 282.208L50.0104 279.096L50.0103 279.084C50.0088 278.958 50.0321 278.833 50.0789 278.716C50.1257 278.599 50.1951 278.492 50.2831 278.402C50.3711 278.312 50.4759 278.24 50.5917 278.191C50.7074 278.141 50.8318 278.115 50.9577 278.114C51.0836 278.112 51.2086 278.135 51.3254 278.182C51.4423 278.229 51.5489 278.298 51.6389 278.386C51.729 278.474 51.8009 278.579 51.8504 278.695C51.9 278.811 51.9262 278.935 51.9277 279.061L51.9278 279.068L51.9408 282.206C51.9419 282.456 51.8437 282.697 51.6677 282.875C51.4917 283.053 51.2522 283.155 51.0016 283.157C50.7511 283.159 50.51 283.061 50.3311 282.886C50.1522 282.711 50.0501 282.472 50.0471 282.221L50.047 282.208Z" fill="white"/>
<path d="M49.936 275.983L49.829 272.871L49.8286 272.861C49.8198 272.601 49.9147 272.348 50.0926 272.157C50.2704 271.967 50.5166 271.855 50.7769 271.846C51.0373 271.837 51.2905 271.932 51.481 272.11C51.6716 272.287 51.7837 272.533 51.7928 272.794L51.793 272.801L51.8769 275.933C51.8834 276.19 51.7881 276.438 51.6119 276.625C51.4357 276.811 51.1928 276.92 50.9364 276.928C50.6799 276.936 50.4308 276.842 50.2434 276.667C50.0561 276.492 49.9457 276.249 49.9364 275.993L49.936 275.983Z" fill="white"/>
<path d="M49.692 269.758L49.5271 266.647L49.5268 266.639C49.5196 266.507 49.5385 266.374 49.5825 266.25C49.6264 266.125 49.6946 266.01 49.783 265.912C49.8713 265.813 49.9783 265.733 50.0976 265.676C50.217 265.619 50.3464 265.586 50.4785 265.579C50.6106 265.572 50.7428 265.591 50.8675 265.635C50.9922 265.679 51.107 265.748 51.2053 265.836C51.3036 265.925 51.3835 266.032 51.4404 266.151C51.4973 266.271 51.5301 266.4 51.5369 266.532L51.5373 266.54L51.6791 269.669C51.6914 269.932 51.5989 270.189 51.4219 270.384C51.2448 270.579 50.9977 270.696 50.7347 270.708C50.4717 270.721 50.2142 270.63 50.0189 270.453C49.8235 270.277 49.7061 270.03 49.6925 269.767L49.692 269.758Z" fill="white"/>
<path d="M49.3357 263.537L49.1189 260.426L49.1182 260.418C49.0999 260.146 49.1904 259.877 49.3696 259.672C49.5489 259.466 49.8025 259.34 50.0746 259.321C50.3468 259.302 50.6154 259.392 50.8215 259.57C51.0276 259.749 51.1544 260.002 51.174 260.274L51.1746 260.282L51.3688 263.411C51.3857 263.68 51.2953 263.945 51.1174 264.147C50.9395 264.35 50.6886 264.473 50.4196 264.491C50.1506 264.509 49.8856 264.419 49.6826 264.242C49.4795 264.065 49.355 263.814 49.3364 263.545L49.3357 263.537Z" fill="white"/>
<path d="M48.8773 257.321L48.6113 254.216L48.6106 254.207C48.5988 254.07 48.6142 253.931 48.6561 253.799C48.698 253.667 48.7654 253.544 48.8546 253.438C49.0347 253.225 49.2924 253.091 49.5709 253.067C49.8495 253.043 50.1261 253.131 50.34 253.311C50.5538 253.491 50.6874 253.749 50.7113 254.027L50.7119 254.035L50.9555 257.159C50.9771 257.434 50.8889 257.706 50.7101 257.916C50.5313 258.126 50.2766 258.257 50.0017 258.279C49.7268 258.302 49.4542 258.215 49.2435 258.036C49.0329 257.858 48.9015 257.604 48.878 257.329L48.8773 257.321Z" fill="white"/>
<path d="M48.3209 251.111L48.0067 248.009L48.0058 248.001C47.9915 247.86 48.0051 247.718 48.0459 247.582C48.0866 247.446 48.1536 247.32 48.2431 247.21C48.3326 247.101 48.4429 247.01 48.5675 246.943C48.6922 246.876 48.8289 246.834 48.9697 246.82C49.1106 246.805 49.2529 246.819 49.3884 246.86C49.524 246.9 49.6503 246.967 49.76 247.057C49.8697 247.146 49.9606 247.257 50.0277 247.381C50.0948 247.506 50.1367 247.643 50.1509 247.783L50.1517 247.792L50.4438 250.913C50.4703 251.194 50.3843 251.474 50.2048 251.691C50.0253 251.909 49.7668 252.046 49.4861 252.074C49.2054 252.101 48.9252 252.016 48.707 251.837C48.4888 251.659 48.3503 251.401 48.3219 251.12L48.3209 251.111Z" fill="white"/>
<path d="M47.6687 244.908L47.3073 241.815L47.3062 241.807C47.2724 241.516 47.3552 241.225 47.5365 240.995C47.7177 240.766 47.9826 240.619 48.2728 240.585C48.563 240.551 48.8548 240.633 49.084 240.815C49.3132 240.996 49.4611 241.261 49.4951 241.551L49.496 241.559L49.8357 244.672C49.8671 244.959 49.7836 245.246 49.6035 245.471C49.4234 245.697 49.1614 245.841 48.8748 245.874C48.5883 245.906 48.3006 245.824 48.0747 245.644C47.8488 245.465 47.7032 245.204 47.6697 244.917L47.6687 244.908Z" fill="white"/>
<path d="M46.9297 238.722L46.5363 235.63L46.5353 235.622C46.498 235.332 46.5773 235.039 46.7557 234.808C46.9342 234.577 47.1971 234.426 47.4867 234.389C47.7763 234.352 48.0689 234.431 48.3001 234.609C48.5312 234.788 48.682 235.051 48.7193 235.34L49.1239 238.448C49.1436 238.593 49.1345 238.74 49.0972 238.881C49.06 239.022 48.9952 239.154 48.9067 239.269C48.8181 239.385 48.7076 239.482 48.5814 239.555C48.4551 239.628 48.3158 239.675 48.1712 239.694C48.0267 239.713 47.8799 239.703 47.7392 239.665C47.5985 239.627 47.4668 239.561 47.3515 239.472C47.2363 239.383 47.1399 239.272 47.0677 239.145C46.9956 239.018 46.9493 238.879 46.9313 238.734L46.9308 238.731L46.9297 238.722Z" fill="white"/>
<path d="M46.1186 232.54L45.6763 229.454L45.675 229.445C45.6335 229.159 45.7075 228.867 45.8808 228.635C46.0541 228.403 46.3125 228.25 46.5991 228.208C46.8857 228.167 47.177 228.241 47.409 228.414C47.641 228.587 47.7946 228.846 47.8361 229.132L48.29 232.235C48.3108 232.377 48.3034 232.523 48.2682 232.662C48.2329 232.802 48.1705 232.933 48.0845 233.048C47.9985 233.164 47.8906 233.261 47.7669 233.335C47.6433 233.409 47.5063 233.458 47.3639 233.478C47.2214 233.499 47.0762 233.492 46.9366 233.457C46.797 233.421 46.6657 233.359 46.5503 233.273C46.4348 233.187 46.3374 233.079 46.2636 232.955C46.1898 232.832 46.1411 232.695 46.1203 232.552L46.1199 232.549L46.1186 232.54Z" fill="white"/>
<path d="M45.2091 226.371L44.7164 223.291L44.7149 223.282C44.6706 222.999 44.74 222.711 44.9081 222.479C45.0762 222.247 45.3293 222.091 45.6119 222.046C45.8946 222 46.1838 222.068 46.4163 222.235C46.6488 222.402 46.8056 222.655 46.8525 222.937L47.3571 226.033C47.38 226.174 47.375 226.318 47.3423 226.457C47.3096 226.596 47.2498 226.727 47.1664 226.843C47.083 226.959 46.9776 227.057 46.8562 227.132C46.7348 227.207 46.5998 227.258 46.4589 227.281C46.3179 227.304 46.1739 227.299 46.0349 227.266C45.8959 227.233 45.7647 227.174 45.6489 227.09C45.533 227.007 45.4346 226.901 45.3595 226.78C45.2844 226.659 45.2339 226.524 45.2109 226.383L45.2104 226.379L45.2091 226.371Z" fill="white"/>
<path d="M44.1981 220.216L43.6545 217.149L43.653 217.14C43.6035 216.86 43.6672 216.572 43.8299 216.339C43.9927 216.106 44.2413 215.947 44.5211 215.897C44.801 215.847 45.0893 215.91 45.3227 216.072C45.5562 216.235 45.7157 216.483 45.7664 216.763L46.3222 219.845C46.3725 220.127 46.3092 220.416 46.1461 220.651C45.983 220.886 45.7334 221.046 45.4522 221.096C45.171 221.147 44.8812 221.084 44.6465 220.921C44.4117 220.758 44.2512 220.509 44.2002 220.228L44.1997 220.225L44.1981 220.216Z" fill="white"/>
<path d="M43.0842 214.087L42.4867 211.028L42.4849 211.019C42.4307 210.742 42.4886 210.455 42.6459 210.221C42.8032 209.987 43.047 209.825 43.3237 209.77C43.6004 209.716 43.8875 209.773 44.1218 209.93C44.3561 210.087 44.5185 210.331 44.5733 210.607L45.1837 213.683C45.211 213.821 45.211 213.962 45.1835 214.1C45.1561 214.238 45.1018 214.369 45.0237 214.485C44.9457 214.602 44.8455 214.702 44.7287 214.78C44.6119 214.858 44.481 214.912 44.3433 214.939C44.2056 214.967 44.0639 214.967 43.9262 214.939C43.7886 214.912 43.6576 214.858 43.541 214.78C43.4243 214.701 43.3241 214.601 43.2462 214.484C43.1682 214.368 43.1141 214.237 43.0867 214.099L43.0861 214.096L43.0842 214.087Z" fill="white"/>
<path d="M41.8611 207.974L41.2073 204.926L41.2051 204.917C41.1471 204.643 41.1997 204.358 41.3514 204.124C41.5031 203.889 41.7415 203.725 42.0145 203.666C42.2874 203.607 42.5726 203.658 42.8076 203.809C43.0425 203.96 43.208 204.198 43.2679 204.471L43.9348 207.537C43.9644 207.673 43.9669 207.813 43.9422 207.95C43.9175 208.087 43.8661 208.218 43.7909 208.335C43.7156 208.452 43.6181 208.553 43.5037 208.632C43.3894 208.712 43.2606 208.768 43.1246 208.797C42.9886 208.827 42.8481 208.829 42.7112 208.805C42.5742 208.78 42.4435 208.729 42.3264 208.653C42.2093 208.578 42.1082 208.481 42.0288 208.366C41.9494 208.252 41.8934 208.123 41.8638 207.987L41.8631 207.984L41.8611 207.974Z" fill="white"/>
<path d="M40.5245 201.884L39.8119 198.849L39.8095 198.839C39.7465 198.569 39.793 198.286 39.9389 198.05C40.0847 197.815 40.318 197.647 40.5876 197.583C40.8571 197.519 41.1409 197.565 41.3767 197.71C41.6125 197.856 41.7811 198.089 41.8455 198.358L42.5718 201.411C42.6358 201.682 42.5896 201.967 42.4435 202.204C42.2974 202.441 42.0632 202.61 41.7924 202.675C41.5216 202.739 41.2364 202.693 40.9992 202.548C40.7621 202.402 40.5925 202.168 40.5276 201.897L40.5269 201.894L40.5245 201.884Z" fill="white"/>
<path d="M39.0735 195.82L38.3158 192.798L38.3132 192.787C38.2479 192.527 38.2881 192.252 38.4251 192.021C38.5621 191.791 38.7847 191.624 39.0444 191.557C39.3041 191.49 39.5797 191.528 39.8111 191.664C40.0425 191.799 40.2109 192.021 40.2796 192.28L41.0839 195.313C41.1541 195.579 41.1159 195.861 40.9778 196.099C40.8397 196.336 40.6129 196.509 40.3473 196.58C40.0817 196.65 39.799 196.612 39.5613 196.475C39.3236 196.337 39.1504 196.11 39.0797 195.845L39.0776 195.836L39.0735 195.82Z" fill="white"/>
<path d="M37.5259 189.782L36.7028 186.776L36.6999 186.765C36.632 186.517 36.6648 186.253 36.7913 186.029C36.9177 185.806 37.1274 185.641 37.3747 185.572C37.622 185.502 37.8867 185.533 38.1112 185.658C38.3356 185.783 38.5015 185.992 38.5726 186.239L39.4428 189.255C39.4789 189.38 39.4901 189.512 39.4755 189.641C39.4609 189.771 39.421 189.897 39.3579 190.011C39.2948 190.125 39.2098 190.226 39.1077 190.307C39.0057 190.389 38.8886 190.449 38.7632 190.485C38.6378 190.522 38.5064 190.533 38.3767 190.518C38.247 190.504 38.1214 190.464 38.0071 190.401C37.8928 190.337 37.7921 190.252 37.7107 190.15C37.6292 190.048 37.5687 189.931 37.5325 189.806L37.5303 189.798L37.5259 189.782Z" fill="white"/>
<path d="M35.8455 183.779L34.9536 180.792L34.9503 180.782C34.88 180.546 34.9056 180.293 35.0216 180.076C35.1375 179.86 35.3344 179.698 35.5692 179.626C35.804 179.554 36.0577 179.578 36.2749 179.693C36.4922 179.807 36.6553 180.003 36.7288 180.237L37.6683 183.233C37.7438 183.473 37.7206 183.734 37.6037 183.958C37.4869 184.182 37.2859 184.35 37.0452 184.425C36.8044 184.501 36.5435 184.477 36.3198 184.361C36.0962 184.244 35.9281 184.043 35.8526 183.802L35.8503 183.794L35.8455 183.779Z" fill="white"/>
<path d="M34.0254 177.817L33.06 174.853L33.0566 174.842C32.9838 174.619 33.0022 174.377 33.1077 174.168C33.2131 173.958 33.3971 173.799 33.6195 173.725C33.8419 173.651 34.0846 173.668 34.2945 173.772C34.5045 173.876 34.6647 174.059 34.7402 174.281L35.7532 177.253C35.7917 177.366 35.8075 177.485 35.7999 177.604C35.7922 177.723 35.7612 177.84 35.7086 177.947C35.6559 178.054 35.5827 178.15 35.4931 178.229C35.4034 178.307 35.2992 178.368 35.1862 178.406C35.0732 178.445 34.9538 178.461 34.8347 178.453C34.7156 178.445 34.5992 178.414 34.4921 178.362C34.385 178.309 34.2893 178.236 34.2105 178.146C34.1317 178.057 34.0714 177.952 34.0329 177.839L34.0305 177.832L34.0254 177.817Z" fill="white"/>
<path d="M32.0565 171.903L31.0133 168.966L31.0093 168.955C30.9715 168.851 30.9546 168.74 30.9595 168.629C30.9645 168.518 30.9912 168.41 31.0382 168.309C31.133 168.106 31.3046 167.949 31.5152 167.873C31.7258 167.796 31.9582 167.807 32.1611 167.902C32.3641 167.996 32.521 168.168 32.5975 168.379L33.6887 171.323C33.7678 171.538 33.7584 171.776 33.6624 171.984C33.5664 172.192 33.3918 172.354 33.1768 172.434C32.9618 172.513 32.7239 172.505 32.5154 172.409C32.3069 172.314 32.1447 172.14 32.0644 171.925L32.062 171.918L32.0565 171.903Z" fill="white"/>
<path d="M29.9292 166.044L28.803 163.139L28.7987 163.127C28.7222 162.93 28.727 162.71 28.8118 162.516C28.8967 162.322 29.0548 162.17 29.2517 162.092C29.4486 162.014 29.6682 162.017 29.8628 162.101C30.0574 162.184 30.2111 162.341 30.2904 162.537L31.465 165.45C31.5054 165.55 31.5258 165.657 31.5248 165.765C31.5237 165.874 31.5014 165.98 31.4591 166.08C31.4168 166.179 31.3553 166.27 31.2782 166.345C31.201 166.421 31.1097 166.481 31.0094 166.521C30.9091 166.562 30.8018 166.582 30.6937 166.581C30.5855 166.58 30.4787 166.558 30.3791 166.516C30.2796 166.473 30.1894 166.412 30.1137 166.335C30.0379 166.257 29.9781 166.166 29.9376 166.066L29.9351 166.06L29.9292 166.044Z" fill="white"/>
<path d="M27.6337 160.25L26.431 157.376L26.4264 157.364C26.3506 157.183 26.3493 156.98 26.4227 156.798C26.4961 156.616 26.6384 156.47 26.8186 156.392C26.9989 156.314 27.2025 156.311 27.3853 156.382C27.5681 156.454 27.7154 156.594 27.7951 156.774L29.0712 159.643C29.113 159.737 29.136 159.838 29.1387 159.941C29.1415 160.043 29.124 160.145 29.0873 160.241C29.0505 160.337 28.9953 160.424 28.9247 160.499C28.8541 160.573 28.7695 160.633 28.6758 160.674C28.5821 160.716 28.4811 160.739 28.3786 160.741C28.2761 160.744 28.174 160.726 28.0783 160.69C27.9826 160.653 27.8951 160.597 27.8209 160.527C27.7466 160.456 27.6869 160.371 27.6454 160.278L27.64 160.265L27.6337 160.25Z" fill="white"/>
<path d="M25.1816 154.521L23.8837 151.688L23.8787 151.677C23.8047 151.515 23.7975 151.331 23.8585 151.164C23.9196 150.997 24.0441 150.86 24.205 150.784C24.3659 150.709 24.5502 150.699 24.7179 150.758C24.8857 150.818 25.0234 150.94 25.1011 151.1L26.4722 153.926C26.5129 154.01 26.5367 154.101 26.5423 154.194C26.5478 154.287 26.5349 154.38 26.5043 154.469C26.4738 154.557 26.4261 154.638 26.3641 154.708C26.3022 154.778 26.2271 154.835 26.1431 154.875C26.0591 154.916 25.968 154.94 25.8748 154.945C25.7816 154.951 25.6883 154.938 25.6001 154.907C25.5119 154.877 25.4306 154.829 25.3608 154.767C25.291 154.705 25.2341 154.63 25.1934 154.546L25.1881 154.535L25.1816 154.521Z" fill="white"/>
<path d="M22.5357 148.878L21.1358 146.093L21.1305 146.083C21.0587 145.941 21.0461 145.775 21.0954 145.624C21.1447 145.472 21.2519 145.345 21.3937 145.272C21.5355 145.199 21.7006 145.184 21.8529 145.232C22.0053 145.28 22.1328 145.386 22.2076 145.527L23.6801 148.3C23.7205 148.374 23.7458 148.456 23.7545 148.54C23.7632 148.625 23.7551 148.71 23.7307 148.791C23.7062 148.872 23.666 148.948 23.6122 149.013C23.5585 149.078 23.4923 149.133 23.4174 149.172C23.3426 149.212 23.2607 149.237 23.1763 149.244C23.092 149.252 23.0069 149.243 22.926 149.218C22.8451 149.193 22.7701 149.152 22.7051 149.098C22.6402 149.043 22.5867 148.976 22.5477 148.901L22.5426 148.891L22.5357 148.878Z" fill="white"/>
<path d="M19.6805 143.334C19.1788 142.433 18.6899 141.503 18.2091 140.56C18.145 140.434 18.133 140.288 18.1759 140.153C18.2187 140.019 18.3129 139.906 18.4379 139.841C18.563 139.775 18.7089 139.761 18.8439 139.803C18.979 139.844 19.0924 139.937 19.1595 140.061L19.163 140.068C19.6482 140.969 20.1481 141.872 20.68 142.779C20.7566 142.91 20.7782 143.066 20.74 143.213C20.7017 143.359 20.6068 143.485 20.476 143.561C20.3453 143.638 20.1894 143.66 20.0428 143.621C19.8961 143.583 19.7706 143.488 19.6939 143.358L19.6891 143.349L19.6805 143.334Z" fill="white"/>
<path d="M16.8304 137.741L15.496 134.899C15.444 134.789 15.4377 134.662 15.4785 134.546C15.5193 134.431 15.6039 134.337 15.7139 134.283C15.824 134.23 15.9507 134.222 16.0665 134.261C16.1823 134.301 16.2779 134.384 16.3326 134.494L16.3358 134.5L17.7307 137.297L17.7338 137.304C17.7634 137.363 17.781 137.427 17.7857 137.493C17.7904 137.559 17.7821 137.625 17.7612 137.687C17.7404 137.75 17.7074 137.808 17.6641 137.858C17.6208 137.907 17.5682 137.948 17.5091 137.978C17.45 138.007 17.3858 138.025 17.3199 138.029C17.2541 138.034 17.188 138.025 17.1254 138.004C17.0629 137.983 17.0051 137.95 16.9553 137.907C16.9056 137.863 16.8649 137.811 16.8355 137.752L16.8304 137.741Z" fill="white"/>
<path d="M14.216 132.038L12.979 129.153C12.9414 129.065 12.9397 128.966 12.9744 128.877C13.0091 128.788 13.0773 128.717 13.1644 128.678C13.2515 128.639 13.3505 128.635 13.44 128.668C13.5296 128.702 13.6025 128.769 13.6431 128.855L13.646 128.861L14.9696 131.693L14.9725 131.699C14.9957 131.748 15.0089 131.802 15.0114 131.856C15.014 131.911 15.0057 131.965 14.9872 132.016C14.9686 132.068 14.9401 132.115 14.9034 132.155C14.8666 132.195 14.8222 132.228 14.7729 132.251C14.7235 132.274 14.67 132.287 14.6155 132.289C14.5611 132.292 14.5067 132.283 14.4554 132.265C14.4042 132.246 14.3572 132.218 14.317 132.181C14.2768 132.144 14.2443 132.099 14.2214 132.05L14.216 132.038Z" fill="white"/>
<path d="M11.7986 126.248L10.6924 123.31C10.668 123.246 10.6701 123.174 10.698 123.111C10.7259 123.048 10.7775 122.998 10.8416 122.973C10.9058 122.948 10.9773 122.948 11.0409 122.975C11.1044 123.002 11.1549 123.053 11.1814 123.117L11.1848 123.125L12.3785 126.009L12.3819 126.017C12.3976 126.055 12.4058 126.096 12.4057 126.137C12.4057 126.179 12.3976 126.219 12.3818 126.257C12.366 126.295 12.3429 126.33 12.3138 126.359C12.2847 126.388 12.2501 126.411 12.212 126.427C12.174 126.443 12.1332 126.451 12.092 126.451C12.0508 126.451 12.01 126.443 11.972 126.427C11.9339 126.411 11.8993 126.388 11.8702 126.359C11.8411 126.33 11.818 126.295 11.8022 126.257L11.7986 126.248Z" fill="white"/>
<path d="M9.70142 120.33L8.93017 117.274C8.91976 117.233 8.92594 117.189 8.94737 117.153C8.96881 117.116 9.00378 117.089 9.04475 117.078C9.08572 117.067 9.1294 117.072 9.16637 117.093C9.20335 117.114 9.23064 117.149 9.24239 117.189L9.24818 117.21L10.1065 120.2L10.1119 120.219C10.1272 120.273 10.1204 120.331 10.0931 120.381C10.0657 120.43 10.02 120.466 9.96592 120.482C9.91186 120.497 9.85384 120.49 9.80458 120.463C9.75532 120.436 9.71884 120.391 9.70311 120.337L9.70142 120.33Z" fill="white"/>
<path d="M9.02125 114.104C9.14253 113.899 9.33526 113.747 9.56222 113.676C9.57529 113.672 9.58902 113.671 9.60266 113.672C9.6163 113.673 9.62956 113.677 9.64169 113.683C9.65382 113.69 9.66458 113.698 9.67335 113.709C9.68212 113.719 9.68873 113.732 9.6928 113.745C9.7004 113.771 9.6976 113.799 9.68499 113.823C9.67239 113.848 9.65094 113.866 9.62509 113.875C9.44931 113.934 9.30208 114.057 9.21237 114.219C9.20502 114.232 9.19522 114.243 9.18357 114.252C9.17191 114.261 9.15861 114.268 9.14442 114.271C9.13024 114.275 9.11546 114.276 9.10091 114.274C9.08635 114.272 9.07231 114.268 9.05961 114.26C9.04691 114.253 9.03578 114.243 9.02686 114.231C9.01794 114.22 9.01143 114.206 9.00766 114.192C9.00389 114.178 9.00294 114.163 9.0049 114.149C9.00685 114.134 9.01166 114.12 9.01903 114.107L9.02125 114.104Z" fill="white"/>
<path d="M106.297 185.009C104.016 185.591 101.69 185.98 99.3439 186.172C97.0279 186.381 94.713 186.467 92.399 186.448C90.0851 186.429 87.7722 186.301 85.4603 186.051C83.1175 185.819 80.7989 185.386 78.5297 184.759C80.8098 184.173 83.1358 183.782 85.4824 183.592C87.7985 183.383 90.1133 183.297 92.4273 183.321C94.7411 183.343 97.0541 183.471 99.366 183.721C101.708 183.955 104.027 184.386 106.297 185.009Z" fill="white"/>
<path d="M46.4779 311.124C46.8759 314.383 47.0515 317.642 47.1818 320.901C47.297 324.16 47.3629 327.419 47.2415 330.678C47.0922 333.937 46.7884 337.196 46.7117 340.455C46.7061 341.269 46.6798 342.084 46.6911 342.899C46.6297 343.675 46.7373 344.455 47.0066 345.185C47.285 345.873 47.7381 346.478 48.3211 346.938C48.9041 347.398 49.597 347.699 50.3315 347.81C51.0369 347.901 51.754 347.821 52.4212 347.574C53.0601 347.32 53.629 346.916 54.0806 346.398C54.5184 345.892 54.8243 345.286 54.9709 344.633C55.0413 344.312 55.075 343.984 55.0715 343.656L55.0459 342.437C54.9738 339.178 54.8862 335.919 54.9146 332.66C55.0027 326.142 55.2645 319.625 55.9225 313.107C55.9251 313.081 55.9372 313.057 55.9564 313.04C55.9757 313.022 56.0007 313.012 56.0267 313.012C56.0527 313.012 56.0777 313.022 56.097 313.04C56.1162 313.057 56.1283 313.081 56.1309 313.107C56.7888 319.625 57.0506 326.142 57.1388 332.66C57.167 335.919 57.0796 339.178 57.0075 342.437L56.9801 343.662C56.9682 344.149 56.8933 344.633 56.7572 345.101C56.3667 346.481 55.4517 347.655 54.2077 348.37C52.9637 349.085 51.4894 349.285 50.0997 348.927C49.2329 348.701 48.4359 348.262 47.7801 347.652C47.1243 347.041 46.6302 346.278 46.342 345.429C46.2045 345.015 46.1133 344.587 46.0703 344.152C46.0425 343.707 46.0519 343.305 46.0562 342.899C46.0676 342.084 46.0412 341.269 46.0356 340.455C45.9588 337.196 45.6551 333.937 45.5058 330.678C45.3844 327.419 45.4503 324.16 45.5655 320.901C45.6959 317.642 45.8713 314.383 46.2694 311.124C46.2725 311.099 46.2848 311.076 46.304 311.059C46.3233 311.042 46.348 311.032 46.3737 311.032C46.3993 311.032 46.4241 311.042 46.4433 311.059C46.4625 311.076 46.4748 311.099 46.4779 311.124V311.124Z" fill="white"/>
<path d="M195.277 318.423C195.675 321.206 195.85 323.988 195.981 326.771C196.096 329.553 196.162 332.335 196.041 335.118C195.912 337.9 195.575 340.682 195.511 343.465C195.471 344.117 195.583 344.769 195.838 345.371C196.092 345.973 196.482 346.508 196.978 346.933C197.554 347.429 198.254 347.758 199.003 347.885C199.752 348.012 200.522 347.932 201.229 347.655C201.937 347.377 202.555 346.911 203.017 346.308C203.479 345.705 203.768 344.987 203.852 344.232C203.904 343.729 203.855 342.973 203.845 342.286C203.773 339.504 203.685 336.722 203.713 333.939C203.763 328.361 204.099 322.789 204.721 317.245C204.724 317.219 204.737 317.196 204.756 317.179C204.775 317.162 204.8 317.152 204.826 317.152C204.851 317.152 204.876 317.162 204.895 317.179C204.914 317.196 204.927 317.219 204.93 317.245C205.552 322.789 205.888 328.361 205.938 333.939C205.966 336.722 205.879 339.504 205.807 342.286C205.812 343.029 205.769 343.771 205.678 344.508C205.468 345.712 204.858 346.81 203.946 347.625C203.035 348.439 201.875 348.923 200.655 348.997C199.893 349.048 199.128 348.937 198.412 348.671C197.696 348.405 197.044 347.991 196.499 347.455C195.966 346.937 195.543 346.317 195.257 345.631C194.971 344.945 194.827 344.208 194.834 343.465C194.77 340.682 194.433 337.9 194.305 335.118C194.183 332.335 194.249 329.553 194.364 326.771C194.495 323.988 194.67 321.206 195.068 318.423C195.072 318.398 195.084 318.375 195.104 318.359C195.123 318.342 195.147 318.333 195.173 318.333C195.198 318.333 195.222 318.342 195.242 318.359C195.261 318.375 195.273 318.398 195.277 318.423V318.423Z" fill="white"/>
<path d="M51.7982 117.495C52.505 116.334 53.3964 115.295 54.4373 114.421C55.4654 113.531 56.5771 112.742 57.7569 112.065C60.1466 110.75 62.7293 109.82 65.4093 109.311C68.0742 108.765 70.7881 108.493 73.5085 108.499C74.8613 108.558 76.2173 108.61 77.5693 108.695L81.6014 109.163C81.7663 109.182 81.9205 109.254 82.0405 109.369L82.0694 109.396C84.2281 111.456 86.4098 113.491 88.5495 115.57L87.7771 115.316C91.4287 115.033 95.0999 115.486 98.5732 116.649C102.008 117.766 105.226 119.465 108.086 121.67C108.802 122.209 109.444 122.841 110.124 123.421C110.454 123.722 110.804 124.002 111.117 124.32L112.02 125.31C112.607 125.982 113.254 126.601 113.805 127.298L115.399 129.439C115.657 129.801 115.945 130.142 116.183 130.516L116.872 131.656L118.248 133.935C119.065 135.506 119.814 137.114 120.601 138.704L120.604 138.711L120.611 138.73C121.275 140.619 122.122 142.439 123.14 144.164C123.645 145.009 124.242 145.796 124.919 146.51C125.521 147.212 126.318 147.718 127.209 147.963C127.273 147.975 127.334 148 127.388 148.036C127.442 148.071 127.488 148.117 127.525 148.17C127.561 148.224 127.587 148.284 127.6 148.347C127.613 148.411 127.614 148.476 127.601 148.54L127.584 148.605L127.579 148.621C126.38 152.052 124.962 155.403 123.333 158.652C121.709 161.915 119.84 165.051 117.74 168.031C115.617 171.032 113.18 173.799 110.471 176.284C107.682 178.774 104.497 180.78 101.047 182.22C100.864 182.294 100.664 182.315 100.47 182.282C100.275 182.248 100.094 182.161 99.9462 182.03L99.9298 182.015C96.2191 178.716 92.6762 175.3 89.2682 171.72C85.8405 168.166 82.5977 164.432 79.5222 160.56C77.9978 158.612 76.5117 156.633 75.1122 154.588C73.7394 152.525 72.4395 150.41 71.2727 148.218C70.0788 146.032 69.1206 143.725 68.4143 141.337C67.6492 138.953 67.4575 136.423 67.8549 133.951C67.8576 133.938 67.8629 133.925 67.8706 133.913C67.8782 133.902 67.888 133.892 67.8994 133.885C67.9108 133.877 67.9236 133.872 67.937 133.869C67.9505 133.867 67.9643 133.867 67.9777 133.869C68.0034 133.875 68.026 133.89 68.0412 133.912C68.0565 133.933 68.0634 133.959 68.0606 133.986C67.8789 136.41 68.2454 138.844 69.1329 141.107C69.9823 143.38 71.0418 145.569 72.2976 147.645C74.8626 151.788 77.7383 155.73 80.9 159.437C84.042 163.172 87.3971 166.727 90.812 170.222C94.2483 173.688 97.7702 177.108 101.39 180.348L100.272 180.143C103.5 178.845 106.492 177.024 109.128 174.754C111.765 172.402 114.155 169.788 116.261 166.951C118.39 164.093 120.315 161.09 122.023 157.962C123.775 154.847 125.313 151.616 126.626 148.291L126.995 148.949C125.923 148.628 124.973 147.989 124.271 147.117C123.585 146.33 122.983 145.473 122.474 144.56C121.454 142.775 120.611 140.895 119.958 138.945L119.968 138.971C119.204 137.399 118.521 135.781 117.691 134.243L116.312 132.012L115.623 130.897C115.388 130.529 115.094 130.202 114.83 129.856L113.206 127.804C112.647 127.137 111.998 126.549 111.391 125.928L110.467 125.009C110.148 124.715 109.794 124.461 109.459 124.185C108.772 123.656 108.125 123.076 107.409 122.591C104.577 120.618 101.428 119.143 98.1001 118.229C94.8293 117.287 91.4183 116.928 88.0231 117.168L87.9789 117.172C87.8461 117.183 87.7125 117.166 87.5869 117.121C87.4614 117.076 87.3466 117.006 87.2504 116.914C85.1005 114.845 82.9929 112.733 80.8621 110.645L81.3297 110.878L77.4149 110.35C76.1056 110.244 74.793 110.17 73.4809 110.087C70.8592 110.005 68.2354 110.161 65.6416 110.551C63.0484 110.944 60.5246 111.704 58.1464 112.81C56.964 113.38 55.8392 114.063 54.7878 114.849C53.7223 115.624 52.776 116.55 51.9791 117.599L51.972 117.608C51.9564 117.63 51.933 117.645 51.9067 117.65C51.8804 117.655 51.8533 117.649 51.831 117.634C51.8086 117.62 51.7928 117.597 51.7867 117.571C51.7806 117.545 51.7847 117.518 51.7983 117.495L51.7982 117.495Z" fill="white"/>
<path d="M73.0714 123.571C73.7017 122.472 74.5033 121.481 75.4461 120.635C76.3869 119.77 77.4411 119.036 78.5796 118.455C79.7279 117.871 80.968 117.487 82.2459 117.321C83.5117 117.152 84.799 117.248 86.0252 117.606C84.8017 117.659 83.5863 117.832 82.3962 118.121C81.2359 118.417 80.1123 118.841 79.0465 119.387C76.8847 120.522 74.8767 121.928 73.0714 123.571V123.571Z" fill="white"/>
<path d="M102.666 180.304C106.333 184.908 110.454 189.13 114.968 192.907C119.37 196.724 124.464 199.66 129.973 201.557C132.691 202.431 135.55 202.78 138.399 202.586C141.229 202.35 143.986 201.556 146.509 200.251C151.588 197.686 155.503 193.139 158.34 188.143C161.137 183.022 162.707 177.321 162.928 171.49L163.131 153.788L163.136 149.359C163.09 147.86 163.19 146.361 163.436 144.882C163.653 143.398 163.989 141.933 164.442 140.503C164.992 139.111 165.616 137.75 166.311 136.425C167.644 133.78 169.037 131.177 170.3 128.526C171.622 125.953 172.618 123.224 173.263 120.403C173.27 120.364 173.281 120.325 173.294 120.287L173.302 120.267L176.685 111.17L178.316 106.612C178.445 106.312 178.53 105.995 178.567 105.67C178.591 105.394 178.558 105.115 178.47 104.852C178.395 104.611 178.262 104.391 178.084 104.212C177.906 104.032 177.687 103.898 177.446 103.822C176.645 103.523 175.385 104.565 174.521 105.75C173.607 107.005 172.815 108.345 172.158 109.752C170.741 112.769 168.952 115.596 166.833 118.169C165.73 119.507 164.43 120.669 162.978 121.616C162.183 122.123 161.305 122.489 160.385 122.696C159.302 122.947 158.163 122.76 157.216 122.177C156.411 121.538 155.803 120.684 155.461 119.714C155.119 118.745 155.058 117.698 155.284 116.695C155.435 115.799 155.707 114.929 156.092 114.106L156.373 113.522C156.454 113.363 156.527 113.202 156.596 113.038C156.733 112.715 156.846 112.381 156.933 112.041C157.109 111.381 157.168 110.695 157.11 110.015C157.101 109.799 157.049 109.587 156.958 109.39C156.943 109.359 157.008 109.447 157.06 109.444C157.121 109.451 157.081 109.444 157.004 109.463C156.418 109.7 155.885 110.052 155.438 110.499C154.9 111 154.417 111.556 153.995 112.158C152.293 114.751 151.114 117.652 150.525 120.697L150.537 120.486L150.878 128.295L151.049 132.198L151.135 134.15C151.184 134.82 151.19 135.492 151.152 136.162C150.762 138.815 150 141.399 148.889 143.839C147.888 146.265 146.748 148.619 145.629 150.962L145.62 150.981L145.597 151.022C143.105 154.735 140.627 158.457 138.099 162.148C138.084 162.17 138.06 162.185 138.034 162.191C138.007 162.196 137.98 162.191 137.957 162.177C137.934 162.162 137.918 162.139 137.912 162.113C137.905 162.087 137.909 162.059 137.923 162.036C140.176 158.172 142.479 154.339 144.768 150.497L144.736 150.556C145.779 148.169 146.829 145.799 147.733 143.383C148.703 141.048 149.349 138.591 149.65 136.081C149.659 135.452 149.631 134.823 149.565 134.197L149.437 132.252L149.18 128.364L148.666 120.589C148.662 120.518 148.666 120.447 148.678 120.377C148.981 118.723 149.424 117.098 150.002 115.519C150.571 113.911 151.336 112.379 152.281 110.959C152.783 110.229 153.359 109.554 154.001 108.945C154.697 108.237 155.549 107.702 156.488 107.383C156.861 107.28 157.255 107.276 157.631 107.373C158.061 107.492 158.437 107.755 158.697 108.117C159.028 108.614 159.224 109.188 159.266 109.783C159.36 110.718 159.291 111.663 159.061 112.574C158.951 113.019 158.809 113.456 158.636 113.88C158.549 114.091 158.457 114.299 158.357 114.502L158.117 115.015C157.823 115.665 157.612 116.349 157.488 117.051C157.37 117.686 157.394 118.339 157.558 118.963C157.703 119.497 158.012 119.972 158.442 120.32C159.175 120.852 160.609 120.497 161.814 119.728C163.077 118.9 164.215 117.895 165.193 116.744C167.224 114.334 168.947 111.681 170.323 108.845C171.058 107.326 171.939 105.881 172.953 104.533C173.498 103.804 174.149 103.161 174.884 102.626C175.319 102.286 175.826 102.051 176.367 101.939C176.907 101.827 177.466 101.841 178 101.981C178.534 102.151 179.018 102.447 179.413 102.844C179.807 103.242 180.1 103.728 180.266 104.263C180.43 104.772 180.487 105.31 180.433 105.842C180.374 106.322 180.246 106.792 180.055 107.236L178.304 111.784C177.11 114.801 175.922 117.814 174.674 120.807L174.713 120.672C173.953 123.595 172.825 126.41 171.358 129.051C169.993 131.69 168.529 134.26 167.126 136.85C166.414 138.121 165.767 139.428 165.186 140.765C164.726 142.145 164.381 143.56 164.156 144.998C163.899 146.432 163.784 147.887 163.812 149.344L163.761 153.774C163.757 159.69 163.665 165.567 163.856 171.511C163.849 177.543 162.435 183.491 159.728 188.882C158.358 191.587 156.63 194.095 154.589 196.339C152.537 198.621 150.088 200.512 147.36 201.921C144.606 203.31 141.601 204.132 138.523 204.341C135.459 204.51 132.39 204.094 129.481 203.117C123.673 201.241 118.679 197.689 114.227 193.77C112.004 191.795 109.911 189.678 107.962 187.432C105.994 185.214 104.169 182.873 102.496 180.425C102.488 180.413 102.483 180.4 102.48 180.387C102.477 180.374 102.477 180.36 102.48 180.346C102.482 180.333 102.488 180.32 102.495 180.309C102.503 180.297 102.513 180.287 102.524 180.28C102.546 180.266 102.573 180.26 102.6 180.265C102.626 180.269 102.649 180.283 102.666 180.304Z" fill="white"/>
<path d="M126.216 150.759C128.24 152.299 130.146 153.979 132.012 155.701C133.886 157.416 135.668 159.227 137.416 161.069C139.152 162.924 140.831 164.833 142.415 166.821C144.014 168.797 145.503 170.86 146.874 173C146.001 172.073 145.21 171.086 144.336 170.167C143.508 169.211 142.66 168.273 141.805 167.342C140.087 165.488 138.399 163.611 136.656 161.782L126.216 150.759Z" fill="white"/>
<path d="M100.602 118.134C106.23 113.975 112.243 110.362 118.558 107.345C121.714 105.807 124.959 104.46 128.277 103.313C131.606 102.142 135.042 101.303 138.535 100.807C142.008 100.334 145.505 100.067 149.009 100.007C149.885 99.9864 150.763 99.9901 151.64 100.035L152.299 100.065C152.545 100.081 152.787 100.129 153.021 100.209C153.491 100.373 153.905 100.668 154.216 101.057C154.488 101.399 154.673 101.802 154.755 102.231C154.837 102.66 154.815 103.102 154.689 103.521C154.563 103.939 154.338 104.321 154.033 104.633C153.728 104.946 153.352 105.18 152.937 105.316L152.317 105.523C149.016 106.641 145.705 107.733 142.363 108.757C140.688 109.258 139.009 109.757 137.294 110.16C136.437 110.365 135.573 110.553 134.689 110.71C133.751 110.9 132.794 110.975 131.838 110.935C131.602 110.918 131.382 110.81 131.223 110.635C131.064 110.46 130.979 110.23 130.986 109.993C130.992 109.756 131.09 109.531 131.258 109.365C131.426 109.198 131.652 109.103 131.889 109.099L131.96 109.099L146.874 108.913L146.888 108.913C147.069 108.911 147.248 108.958 147.405 109.048C147.734 109.239 148.033 109.477 148.291 109.757C148.594 110.088 148.806 110.493 148.906 110.931C148.979 111.367 148.938 111.814 148.787 112.229C148.637 112.645 148.381 113.014 148.046 113.302C147.155 114.061 146.131 114.65 145.027 115.039C144.034 115.408 143.021 115.722 141.994 115.979C140.982 116.267 139.967 116.445 138.955 116.682L139.482 116.397C138.324 117.485 137.076 118.473 135.752 119.352C134.436 120.248 133.034 121.012 131.568 121.633C130.062 122.291 128.443 122.647 126.8 122.682C125.098 122.682 123.447 122.1 122.122 121.031L122.843 121.056C121.207 122.048 119.589 123.069 117.936 124.036C116.288 125.012 114.65 126.002 112.986 126.953C112.963 126.966 112.936 126.97 112.911 126.964C112.885 126.958 112.862 126.942 112.848 126.92C112.833 126.898 112.828 126.871 112.832 126.845C112.836 126.819 112.85 126.795 112.871 126.779C114.398 125.621 115.951 124.501 117.493 123.367C119.031 122.225 120.603 121.136 122.157 120.018C122.255 119.948 122.373 119.909 122.494 119.908C122.615 119.906 122.733 119.943 122.833 120.011L122.879 120.043C124.015 120.837 125.391 121.216 126.774 121.116C128.196 121.019 129.585 120.645 130.863 120.016C132.189 119.384 133.449 118.624 134.626 117.745C135.808 116.87 136.932 115.917 137.988 114.894C138.125 114.761 138.293 114.666 138.477 114.618L138.516 114.609C139.483 114.36 140.477 114.167 141.421 113.876C142.366 113.617 143.297 113.312 144.211 112.96C145.033 112.674 145.802 112.254 146.487 111.716C146.775 111.456 146.719 111.36 146.736 111.399C146.749 111.396 146.709 111.332 146.643 111.242C146.552 111.149 146.451 111.066 146.344 110.993L146.874 111.129L131.96 110.943L132.082 109.107C132.866 109.155 133.653 109.118 134.428 108.996C135.263 108.883 136.107 108.738 136.951 108.573C138.636 108.233 140.331 107.876 142.018 107.478C145.394 106.68 148.752 105.791 152.093 104.812L152.717 104.625C152.895 104.573 153.065 104.497 153.222 104.399C153.539 104.199 153.792 103.914 153.954 103.577C154.112 103.235 154.174 102.855 154.132 102.481C154.089 102.106 153.945 101.75 153.714 101.452C153.483 101.154 153.172 100.929 152.817 100.801C152.637 100.744 152.45 100.71 152.262 100.7L151.616 100.68C150.755 100.649 149.891 100.656 149.028 100.69C145.573 100.893 142.138 101.364 138.755 102.097C135.401 102.85 132.104 103.841 128.89 105.061C125.645 106.213 122.444 107.501 119.288 108.923C112.974 111.742 106.788 114.899 100.718 118.307C100.706 118.314 100.693 118.319 100.68 118.321C100.666 118.323 100.652 118.323 100.639 118.319C100.626 118.316 100.613 118.31 100.602 118.302C100.591 118.294 100.582 118.284 100.575 118.272C100.562 118.249 100.558 118.223 100.563 118.198C100.568 118.173 100.582 118.15 100.602 118.134V118.134Z" fill="white"/>
<path d="M163.191 87.5032L154.046 101.382C155.787 104.353 151.898 105.26 151.898 105.26L147.467 110.495C147.467 110.495 148.729 112.591 145.183 113.779L150.804 116.219C150.804 116.219 152.712 110.495 155.61 108.879L153.212 108.117L164.015 90.4854L178.612 91.9764L167.799 112.747L158.207 109.702C158.337 111.547 157.892 113.386 156.935 114.968L156.33 117.502L163.566 119.837C166.313 116.458 168.878 112.936 171.251 109.285C173.493 105.458 175.505 102.424 176.944 102.82L185.015 88.9941L163.191 87.5032ZM150.835 112.684C150.429 112.67 150.046 112.499 149.764 112.207C149.483 111.915 149.325 111.526 149.325 111.12C149.325 110.715 149.483 110.325 149.764 110.033C150.046 109.742 150.429 109.571 150.835 109.556C151.24 109.571 151.624 109.742 151.905 110.033C152.187 110.325 152.344 110.715 152.344 111.12C152.344 111.526 152.187 111.915 151.905 112.207C151.624 112.499 151.24 112.67 150.835 112.684V112.684ZM163.597 116.939C163.192 116.924 162.809 116.753 162.527 116.461C162.245 116.17 162.088 115.78 162.088 115.375C162.088 114.969 162.245 114.579 162.527 114.288C162.809 113.996 163.192 113.825 163.597 113.81C164.003 113.825 164.387 113.996 164.668 114.288C164.95 114.579 165.107 114.969 165.107 115.375C165.107 115.78 164.95 116.17 164.668 116.461C164.387 116.753 164.003 116.924 163.597 116.939V116.939Z" fill="white"/>
<path d="M107.975 113.776C109.877 115.132 111.661 116.646 113.309 118.302C114.99 119.925 116.53 121.687 117.912 123.571C116.009 122.216 114.224 120.702 112.578 119.044C110.898 117.42 109.358 115.658 107.975 113.776V113.776Z" fill="white"/>
<path d="M304.028 228.904C298.909 226.349 260.308 153.162 260.308 153.162C254.166 141.828 246.127 136.197 238.474 133.591C233.247 131.87 227.697 131.365 222.246 132.113C216.795 132.861 211.586 134.843 207.016 137.907L163.264 166.759C163.942 180.095 160.626 185.1 160.626 185.1L197.537 186.758C211.802 190.741 211.239 202.273 211.239 202.273L212.406 287.201C236.096 298.702 265.417 287.201 265.417 287.201L261.069 263.417L256.846 240.155C255.397 232.418 253.947 224.692 252.248 217.017C251.445 213.17 250.527 209.353 249.547 205.547C248.588 201.752 247.525 197.967 246.304 194.255C245.136 190.529 243.672 186.903 241.925 183.411C241.072 181.668 239.989 180.047 238.703 178.594C238.056 177.881 237.286 177.291 236.43 176.852C236.007 176.618 235.534 176.486 235.051 176.468C234.567 176.45 234.086 176.546 233.646 176.748C234.081 176.491 234.57 176.341 235.074 176.31C235.578 176.279 236.082 176.369 236.545 176.571C237.485 176.952 238.348 177.504 239.089 178.197C240.532 179.594 241.784 181.175 242.811 182.9C244.816 186.342 246.498 189.962 247.837 193.713C250.505 201.175 252.658 208.812 254.281 216.569C255.96 224.295 257.326 232.084 258.452 239.894C259.599 247.704 260.423 255.555 261.069 263.417C281.016 259.841 304.028 228.904 304.028 228.904ZM217.046 286.44C216.641 286.426 216.257 286.255 215.976 285.963C215.694 285.671 215.537 285.281 215.537 284.876C215.537 284.471 215.694 284.081 215.976 283.789C216.257 283.498 216.641 283.327 217.046 283.312C217.451 283.327 217.835 283.498 218.117 283.789C218.398 284.081 218.555 284.471 218.555 284.876C218.555 285.281 218.398 285.671 218.117 285.963C217.835 286.255 217.451 286.426 217.046 286.44V286.44ZM224.554 288.442C224.149 288.428 223.765 288.256 223.483 287.965C223.202 287.673 223.044 287.283 223.044 286.878C223.044 286.472 223.202 286.083 223.483 285.791C223.765 285.499 224.149 285.328 224.554 285.314C224.959 285.328 225.343 285.499 225.625 285.791C225.907 286.083 226.064 286.472 226.064 286.878C226.064 287.284 225.907 287.673 225.625 287.965C225.343 288.257 224.959 288.428 224.554 288.442V288.442ZM258.337 283.312C258.743 283.325 259.128 283.496 259.41 283.788C259.693 284.08 259.85 284.47 259.85 284.876C259.85 285.282 259.693 285.672 259.41 285.964C259.128 286.256 258.743 286.427 258.337 286.44C257.932 286.426 257.547 286.256 257.265 285.964C256.983 285.672 256.825 285.282 256.825 284.876C256.825 284.47 256.983 284.08 257.265 283.788C257.547 283.496 257.932 283.326 258.337 283.312V283.312ZM250.079 285.814C250.485 285.828 250.87 285.998 251.152 286.29C251.435 286.582 251.592 286.972 251.592 287.378C251.592 287.784 251.435 288.175 251.152 288.467C250.87 288.758 250.485 288.929 250.079 288.942C249.673 288.929 249.289 288.758 249.007 288.466C248.724 288.174 248.567 287.784 248.567 287.378C248.567 286.972 248.724 286.582 249.007 286.291C249.289 285.999 249.673 285.828 250.079 285.814V285.814ZM242.071 286.815C242.477 286.829 242.862 286.999 243.144 287.291C243.427 287.583 243.584 287.973 243.584 288.379C243.584 288.785 243.427 289.176 243.144 289.468C242.862 289.759 242.477 289.93 242.071 289.943C241.665 289.93 241.281 289.759 240.999 289.467C240.717 289.175 240.559 288.785 240.559 288.379C240.559 287.973 240.717 287.583 240.999 287.292C241.281 287 241.665 286.829 242.071 286.815V286.815ZM233.312 289.693C232.907 289.679 232.524 289.507 232.242 289.216C231.961 288.924 231.803 288.534 231.803 288.129C231.803 287.724 231.961 287.334 232.242 287.042C232.524 286.751 232.907 286.579 233.312 286.565C233.718 286.579 234.102 286.75 234.384 287.042C234.666 287.333 234.824 287.723 234.824 288.129C234.824 288.535 234.666 288.925 234.384 289.217C234.102 289.508 233.718 289.679 233.312 289.693V289.693ZM300.379 226.005C300.785 226.018 301.17 226.189 301.452 226.481C301.734 226.773 301.892 227.163 301.892 227.569C301.892 227.975 301.734 228.365 301.452 228.657C301.17 228.949 300.785 229.12 300.379 229.133C299.973 229.119 299.589 228.948 299.307 228.657C299.025 228.365 298.868 227.975 298.868 227.569C298.868 227.163 299.025 226.774 299.307 226.482C299.589 226.19 299.973 226.019 300.379 226.005V226.005ZM294.874 232.261C295.279 232.275 295.664 232.445 295.947 232.737C296.229 233.029 296.387 233.419 296.387 233.825C296.387 234.231 296.229 234.622 295.947 234.913C295.664 235.205 295.279 235.376 294.874 235.389C294.468 235.375 294.084 235.205 293.802 234.913C293.52 234.621 293.362 234.231 293.362 233.825C293.362 233.42 293.52 233.03 293.802 232.738C294.084 232.446 294.468 232.275 294.874 232.261V232.261ZM263.092 260.664C262.687 260.65 262.303 260.479 262.022 260.187C261.74 259.895 261.583 259.506 261.583 259.1C261.583 258.695 261.74 258.305 262.022 258.014C262.303 257.722 262.687 257.551 263.092 257.536C263.498 257.55 263.882 257.721 264.164 258.013C264.446 258.305 264.603 258.695 264.603 259.1C264.603 259.506 264.446 259.896 264.164 260.188C263.882 260.48 263.498 260.651 263.092 260.665V260.664ZM269.849 257.661C269.444 257.647 269.06 257.476 268.778 257.184C268.497 256.892 268.339 256.503 268.339 256.097C268.339 255.692 268.497 255.302 268.778 255.011C269.06 254.719 269.444 254.548 269.849 254.533C270.254 254.547 270.639 254.718 270.92 255.01C271.202 255.302 271.36 255.692 271.36 256.097C271.36 256.503 271.202 256.893 270.92 257.185C270.639 257.477 270.254 257.648 269.849 257.661V257.661ZM276.605 253.657C276.2 253.643 275.816 253.472 275.535 253.18C275.253 252.888 275.096 252.499 275.096 252.093C275.096 251.688 275.253 251.298 275.535 251.007C275.816 250.715 276.2 250.544 276.605 250.529C277.011 250.543 277.395 250.714 277.677 251.006C277.959 251.298 278.117 251.688 278.117 252.093C278.117 252.499 277.959 252.889 277.677 253.181C277.395 253.473 277.011 253.644 276.605 253.658V253.657ZM282.862 248.152C282.456 248.138 282.073 247.966 281.791 247.675C281.51 247.383 281.352 246.993 281.352 246.588C281.352 246.183 281.51 245.793 281.791 245.501C282.073 245.21 282.456 245.038 282.862 245.024C283.267 245.038 283.651 245.209 283.933 245.501C284.215 245.792 284.373 246.182 284.373 246.588C284.373 246.994 284.215 247.384 283.933 247.676C283.651 247.967 283.267 248.138 282.862 248.152V248.152ZM289.118 238.267C289.524 238.281 289.908 238.451 290.191 238.743C290.473 239.035 290.631 239.425 290.631 239.831C290.631 240.237 290.473 240.627 290.191 240.919C289.908 241.211 289.524 241.382 289.118 241.395C288.712 241.381 288.328 241.21 288.046 240.919C287.764 240.627 287.607 240.237 287.607 239.831C287.607 239.426 287.764 239.036 288.046 238.744C288.328 238.452 288.712 238.281 289.118 238.267V238.267Z" fill="white"/>
<path d="M212.592 306.456C212.878 311.29 213.009 316.133 212.837 320.99C212.804 323.456 212.559 325.915 212.104 328.339C212.03 328.665 211.935 328.985 211.82 329.298L211.586 329.808L211.465 330.061C211.454 330.093 211.44 330.125 211.425 330.155C211.386 330.329 211.385 330.51 211.421 330.684C211.458 330.859 211.531 331.024 211.636 331.168C212.226 332.075 213.007 332.843 213.924 333.418C215.827 334.678 217.991 335.492 220.252 335.8C222.514 336.109 224.817 335.903 226.988 335.199C227.525 335.016 228.051 334.804 228.566 334.565C229.122 334.302 229.692 334.045 230.266 333.808C231.421 333.333 232.611 332.947 233.825 332.655C236.254 332.098 238.752 331.913 241.236 332.104C243.698 332.229 246.133 332.668 248.483 333.41C249.656 333.78 250.799 334.24 251.901 334.785C252.979 335.297 254.091 335.731 255.23 336.084C257.525 336.807 259.862 337.389 262.228 337.828C264.592 338.28 266.971 338.671 269.365 338.931C274.128 339.502 278.937 339.592 283.719 339.199C286.041 339.042 288.323 338.515 290.478 337.638C291.435 337.249 292.255 336.586 292.835 335.731C293.055 335.309 293.188 334.847 293.224 334.373C293.26 333.899 293.199 333.422 293.046 332.972L293.208 333.293C292.744 332.771 292.24 332.287 291.7 331.845C291.146 331.373 290.55 330.94 289.954 330.509C288.732 329.669 287.456 328.91 286.135 328.235C283.463 326.889 280.686 325.764 277.831 324.871C274.957 323.98 272.036 323.248 269.081 322.678C267.607 322.356 266.119 322.172 264.638 321.91C263.071 321.713 261.522 321.391 260.005 320.948C256.972 320.071 254.089 318.737 251.457 316.993C248.815 315.259 246.573 312.983 244.88 310.315C243.186 307.647 242.081 304.65 241.636 301.521C241.199 298.462 241.223 295.354 241.709 292.301C241.713 292.275 241.727 292.251 241.748 292.234C241.769 292.218 241.796 292.21 241.823 292.213C241.849 292.216 241.874 292.229 241.891 292.249C241.909 292.27 241.918 292.296 241.916 292.323C241.697 295.348 241.903 298.389 242.526 301.357C243.122 304.283 244.311 307.056 246.018 309.506C247.734 311.914 249.908 313.959 252.416 315.525C254.937 317.08 257.68 318.244 260.55 318.975C261.978 319.348 263.43 319.62 264.896 319.791C266.427 320.036 267.977 320.207 269.492 320.515C271.011 320.806 272.533 321.085 274.03 321.496C275.54 321.844 277.024 322.304 278.509 322.757C281.479 323.711 284.358 324.928 287.112 326.394C289.971 327.837 292.55 329.776 294.73 332.122C294.799 332.202 294.85 332.296 294.879 332.397L294.892 332.444C295.109 333.146 295.178 333.885 295.095 334.615C295.011 335.344 294.778 336.049 294.408 336.684C293.613 337.831 292.49 338.712 291.186 339.212C288.836 340.112 286.349 340.602 283.833 340.662C278.958 340.825 274.077 340.519 269.26 339.75C264.448 339.094 259.692 338.079 255.031 336.713C253.86 336.355 252.71 335.931 251.586 335.443C250.506 334.947 249.388 334.539 248.242 334.223C245.942 333.624 243.575 333.322 241.198 333.323C238.846 333.258 236.498 333.548 234.233 334.183C233.113 334.522 232.017 334.931 230.949 335.409C230.413 335.648 229.888 335.903 229.359 336.171C228.785 336.457 228.196 336.712 227.594 336.935C225.161 337.792 222.554 338.031 220.006 337.629C217.473 337.235 215.061 336.274 212.952 334.818C211.831 334.078 210.89 333.096 210.199 331.945C210.011 331.602 209.88 331.232 209.812 330.847C209.722 330.391 209.778 329.918 209.97 329.495L210.134 329.184L210.203 329.026L210.352 328.715C210.448 328.462 210.528 328.204 210.593 327.942C211.128 325.633 211.471 323.283 211.618 320.917C211.986 316.121 212.208 311.292 212.384 306.46C212.384 306.446 212.387 306.433 212.393 306.42C212.398 306.408 212.406 306.396 212.416 306.387C212.426 306.377 212.438 306.37 212.451 306.365C212.463 306.36 212.477 306.358 212.491 306.358C212.517 306.359 212.541 306.37 212.56 306.388C212.579 306.406 212.59 306.43 212.592 306.456Z" fill="white"/>
<path d="M273.697 258.152C274.707 260.009 275.615 261.915 276.479 263.845C277.341 265.775 278.158 267.73 278.861 269.731C279.583 271.735 280.196 273.776 280.698 275.845C281.25 277.95 281.512 280.12 281.477 282.295C281.46 282.859 281.4 283.421 281.298 283.975C281.25 284.261 281.185 284.543 281.103 284.82L280.973 285.241C280.955 285.303 280.92 285.4 280.916 285.432C280.912 285.462 280.906 285.491 280.897 285.519C280.769 286.015 281.275 286.931 281.901 287.589C283.284 288.99 284.98 290.042 286.849 290.659C288.721 291.316 290.705 291.592 292.685 291.473C294.676 291.332 296.618 290.784 298.388 289.863C300.356 288.928 302.438 288.258 304.582 287.87C306.718 287.538 308.886 287.46 311.041 287.636C313.183 287.772 315.303 288.147 317.361 288.753C318.388 289.058 319.396 289.427 320.377 289.857C321.313 290.324 322.273 290.74 323.253 291.104C327.234 292.416 331.344 293.303 335.512 293.751C339.665 294.282 343.86 294.406 348.037 294.119C350.098 293.978 352.141 293.643 354.139 293.119C355.106 292.852 356.044 292.491 356.941 292.042C357.802 291.642 358.572 291.07 359.202 290.361C359.803 289.708 360.159 288.868 360.211 287.983C360.294 287.079 360.145 286.169 359.777 285.339C359.374 284.474 358.831 283.681 358.17 282.993C357.497 282.237 356.775 281.526 356.009 280.864C352.875 278.214 349.312 276.118 345.474 274.667C343.554 273.914 341.594 273.27 339.602 272.739C337.601 272.2 335.486 271.659 333.475 270.976C329.413 269.633 325.485 267.914 321.741 265.842C318.03 263.737 314.506 261.317 311.208 258.61C307.89 255.938 304.853 252.933 302.146 249.643C299.414 246.375 297.283 242.648 295.851 238.635C295.842 238.609 295.844 238.581 295.856 238.556C295.868 238.531 295.889 238.512 295.916 238.503C295.941 238.495 295.968 238.496 295.992 238.507C296.016 238.518 296.035 238.537 296.046 238.561C297.77 242.377 300.101 245.888 302.949 248.959C305.767 252.034 308.87 254.836 312.216 257.329C318.799 262.433 326.229 266.337 334.167 268.862C336.152 269.515 338.115 270.037 340.181 270.592C342.261 271.141 344.302 271.829 346.289 272.652C350.321 274.257 354.049 276.539 357.313 279.399C358.129 280.128 358.896 280.91 359.609 281.74C360.394 282.59 361.026 283.569 361.476 284.634C361.932 285.753 362.094 286.97 361.948 288.17C361.878 288.783 361.718 289.382 361.473 289.948C361.201 290.496 360.855 291.003 360.443 291.455C359.65 292.304 358.691 292.982 357.625 293.446C356.618 293.899 355.569 294.252 354.492 294.498C352.391 294.952 350.251 295.207 348.101 295.259C343.859 295.353 339.616 295.091 335.417 294.478C331.215 293.932 327.07 293.016 323.028 291.742C322.031 291.401 321.006 290.964 320.079 290.551C319.121 290.16 318.137 289.835 317.134 289.58C315.121 289.09 313.06 288.827 310.989 288.796C308.935 288.726 306.88 288.896 304.865 289.301C302.877 289.764 300.957 290.477 299.149 291.423C297.194 292.511 295.026 293.161 292.795 293.327C290.563 293.492 288.323 293.17 286.229 292.382C284.094 291.631 282.171 290.379 280.621 288.731C280.217 288.282 279.874 287.781 279.602 287.242C279.263 286.608 279.148 285.878 279.277 285.17L279.359 284.875L279.417 284.689L279.526 284.357C279.598 284.131 279.656 283.901 279.698 283.667C279.796 283.188 279.856 282.702 279.879 282.214C279.853 278.083 279.159 273.983 277.823 270.074C276.584 266.061 275.145 262.112 273.51 258.244C273.499 258.218 273.498 258.189 273.508 258.164C273.518 258.138 273.538 258.117 273.563 258.106C273.587 258.096 273.614 258.095 273.639 258.103C273.664 258.112 273.685 258.129 273.697 258.152V258.152Z" fill="white"/>
<path d="M105.115 75.919C105.52 75.905 105.905 75.7341 106.186 75.4423C106.468 75.1505 106.626 74.7607 106.626 74.355C106.626 73.9493 106.468 73.5595 106.186 73.2677C105.905 72.9759 105.52 72.805 105.115 72.7909C104.71 72.805 104.325 72.9759 104.044 73.2677C103.762 73.5595 103.604 73.9493 103.604 74.355C103.604 74.7607 103.762 75.1505 104.044 75.4423C104.325 75.7341 104.71 75.905 105.115 75.919Z" fill="white"/>
<path d="M80.3071 77.8613C80.7125 77.8473 81.0967 77.6764 81.3786 77.3846C81.6605 77.0928 81.818 76.703 81.818 76.2972C81.818 75.8915 81.6605 75.5017 81.3786 75.2099C81.0967 74.9181 80.7125 74.7472 80.3071 74.7332C79.9016 74.7472 79.5174 74.9181 79.2355 75.2099C78.9536 75.5017 78.7961 75.8915 78.7961 76.2972C78.7961 76.703 78.9536 77.0928 79.2355 77.3846C79.5174 77.6764 79.9016 77.8473 80.3071 77.8613V77.8613Z" fill="white"/>
<path d="M100.66 87.1384C101.386 88.0302 101.986 88.8328 102.694 89.541C103.038 89.9028 103.409 90.238 103.804 90.5438C104.197 90.8741 104.641 91.1317 105.115 91.4847C104.534 91.5624 103.942 91.4819 103.403 91.2516C102.854 91.03 102.359 90.6953 101.948 90.2692C101.543 89.8495 101.217 89.3599 100.985 88.8241C100.745 88.2959 100.633 87.7181 100.66 87.1384Z" fill="white"/>
<path d="M107.974 69.4972C107.427 69.6281 106.853 69.5776 106.337 69.3534C105.821 69.1292 105.392 68.7433 105.115 68.254C105.661 68.1113 106.24 68.162 106.752 68.3977C107.273 68.6139 107.705 69.0019 107.974 69.4972V69.4972Z" fill="white"/>
<path d="M78.6987 79.4368C79.2315 79.5057 79.7679 79.543 80.3052 79.5486C80.7968 79.5567 81.2669 79.4803 81.9154 79.4368C81.7592 79.7172 81.5242 79.9457 81.2394 80.094C80.9527 80.249 80.632 80.3302 80.3061 80.3302C79.9823 80.3412 79.6616 80.2638 79.3785 80.1064C79.0953 79.949 78.8603 79.7175 78.6987 79.4368V79.4368Z" fill="white"/>
<path d="M101.685 176.584C102.09 176.57 102.475 176.399 102.756 176.107C103.038 175.816 103.196 175.426 103.196 175.02C103.196 174.614 103.038 174.225 102.756 173.933C102.475 173.641 102.09 173.47 101.685 173.456C101.28 173.47 100.895 173.641 100.614 173.933C100.332 174.225 100.174 174.614 100.174 175.02C100.174 175.426 100.332 175.816 100.614 176.107C100.895 176.399 101.28 176.57 101.685 176.584Z" fill="white"/>
<path d="M106.94 172.08C107.346 172.066 107.73 171.895 108.012 171.603C108.293 171.311 108.451 170.921 108.451 170.516C108.451 170.11 108.293 169.72 108.012 169.428C107.73 169.137 107.346 168.966 106.94 168.952C106.535 168.966 106.151 169.137 105.869 169.428C105.587 169.72 105.429 170.11 105.429 170.516C105.429 170.921 105.587 171.311 105.869 171.603C106.151 171.895 106.535 172.066 106.94 172.08Z" fill="white"/>
<path d="M112.446 166.574C112.851 166.56 113.235 166.389 113.517 166.098C113.799 165.806 113.957 165.416 113.957 165.01C113.957 164.605 113.799 164.215 113.517 163.923C113.235 163.631 112.851 163.46 112.446 163.446C112.04 163.46 111.656 163.631 111.374 163.923C111.092 164.215 110.935 164.605 110.935 165.01C110.935 165.416 111.092 165.806 111.374 166.098C111.656 166.389 112.04 166.56 112.446 166.574V166.574Z" fill="white"/>
<path d="M117.2 160.318C117.606 160.304 117.99 160.133 118.272 159.841C118.554 159.55 118.711 159.16 118.711 158.754C118.711 158.348 118.554 157.958 118.272 157.667C117.99 157.375 117.606 157.204 117.2 157.19C116.795 157.204 116.411 157.375 116.129 157.667C115.847 157.958 115.689 158.348 115.689 158.754C115.689 159.16 115.847 159.55 116.129 159.841C116.411 160.133 116.795 160.304 117.2 160.318V160.318Z" fill="white"/>
<path d="M121.204 154.062C121.61 154.048 121.994 153.877 122.276 153.585C122.558 153.293 122.715 152.904 122.715 152.498C122.715 152.092 122.558 151.702 122.276 151.41C121.994 151.119 121.61 150.948 121.204 150.934C120.799 150.948 120.415 151.119 120.133 151.41C119.851 151.702 119.693 152.092 119.693 152.498C119.693 152.904 119.851 153.293 120.133 153.585C120.415 153.877 120.799 154.048 121.204 154.062Z" fill="white"/>
<path d="M176.024 50.1101H148.418V67.1991H158.459L162.221 70.9615L165.983 67.1991H176.024V50.1101Z" stroke="white" stroke-width="1.0427" stroke-miterlimit="10"/>
<path d="M203.63 23.8521H176.024V40.9412H186.065L189.827 44.7035L193.588 40.9412H203.63V23.8521Z" stroke="white" stroke-width="1.0427" stroke-miterlimit="10"/>
<path d="M172.789 1.00002H145.183V18.089H155.224L158.987 21.8503L162.748 18.089H172.789V1.00002Z" stroke="white" stroke-width="1.0427" stroke-miterlimit="10"/>
</svg>
