<svg width="31" height="30" viewBox="0 0 31 30" fill="none" xmlns="http://www.w3.org/2000/svg">
<path id="github" d="M15.1876 4.08492e-07C7.73921 -0.000968746 1.3898 5.47092 0.197261 12.9186C-0.995279 20.3663 3.32118 27.5906 10.388 29.9745C11.1491 30.1133 11.4216 29.6399 11.4216 29.2328C11.4216 28.8674 11.4094 27.899 11.4048 26.6115C7.18065 27.5366 6.28862 24.5483 6.28862 24.5483C6.01054 23.6184 5.4127 22.8202 4.60351 22.2986C3.23351 21.3441 4.70855 21.3657 4.70855 21.3657C5.68381 21.5011 6.54215 22.0865 7.033 22.9508C7.44846 23.716 8.14842 24.2815 8.97735 24.5215C9.80628 24.7615 10.6955 24.6563 11.4475 24.2291C11.5181 23.4489 11.8608 22.7196 12.4141 22.1721C9.04386 21.7851 5.50011 20.4651 5.50011 14.5702C5.4814 13.0454 6.04035 11.5715 7.06192 10.4515C6.59969 9.12436 6.65413 7.66865 7.21414 6.38071C7.21414 6.38071 8.48825 5.96591 11.3881 7.95507C13.8752 7.26427 16.5 7.26427 18.9871 7.95507C21.8885 5.96437 23.161 6.38071 23.161 6.38071C23.7237 7.66804 23.7781 9.12477 23.3133 10.4515C24.3386 11.5714 24.8971 13.0492 24.872 14.5763C24.872 20.4867 21.3252 21.7851 17.9428 22.1659C18.6725 22.9216 19.0467 23.9582 18.9703 25.0124C18.9703 27.0694 18.9521 28.7286 18.9521 29.2328C18.9521 29.6445 19.223 30.1225 19.9978 29.9714C27.0617 27.5835 31.3735 20.3587 30.1786 12.913C28.9836 5.46732 22.6344 -0.00172574 15.1876 4.08492e-07Z" fill="#FCFCFC"/>
</svg>
