<svg width="238" height="56" viewBox="0 0 238 56" fill="none" xmlns="http://www.w3.org/2000/svg">
<path fill-rule="evenodd" clip-rule="evenodd" d="M50.0301 12.6713V19.3342C50.052 21.1458 49.3679 22.8921 48.1285 24.1888C46.889 25.4855 45.1957 26.2265 43.4211 26.2486H40.7118C39.794 26.1482 39.0979 25.3576 39.0979 24.4152C39.0979 23.4729 39.794 22.6822 40.7118 22.5819H43.339C44.17 22.5764 44.9645 22.2326 45.5463 21.6269C46.1281 21.0211 46.4492 20.2035 46.4382 19.3552V12.6713C46.4161 10.9334 45.0414 9.53007 43.339 9.5075H36.7916C35.0799 9.5075 33.6924 10.924 33.6924 12.6713V22.6657C33.659 23.6791 32.8384 24.4796 31.8451 24.4676C31.3679 24.4567 30.9147 24.2511 30.5869 23.8968C30.2591 23.5425 30.084 23.0689 30.1005 22.5819V12.6713C30.0951 10.8561 30.7976 9.11338 32.053 7.82787C33.3084 6.54236 35.0135 5.81985 36.7916 5.81985H43.339C47.0056 5.90873 49.9542 8.928 50.0301 12.6713ZM19.0788 5.81986H12.5314C8.83403 5.84274 5.84224 8.89689 5.81983 12.6713V19.3552C5.84234 23.1262 8.83735 26.1743 12.5314 26.1857H19.0788C20.8569 26.1913 22.5641 25.4741 23.8234 24.1925C25.0826 22.9109 25.7904 21.1704 25.7904 19.3552V12.6713C25.7791 8.89215 22.7808 5.83137 19.0788 5.81986ZM22.178 19.3552C22.189 20.2035 21.868 21.0212 21.2861 21.6269C20.7043 22.2327 19.9098 22.5764 19.0788 22.5819H12.5314C11.688 22.5992 10.8742 22.2648 10.2777 21.6559C9.68125 21.047 9.35368 20.2162 9.37061 19.3552V12.6714C9.37044 11.8212 9.70541 11.0068 10.3 10.4117C10.8946 9.81649 11.6988 9.49063 12.5314 9.50752H19.0788C20.7858 9.51895 22.1668 10.9288 22.178 12.6714V19.3552ZM36.7917 29.6848H43.339C47.0331 29.6962 50.0281 32.7443 50.0506 36.5153V43.1991C50.0282 46.9736 47.0364 50.0277 43.339 50.0506H36.7917C33.0976 50.0276 30.1118 46.9702 30.1006 43.1991V36.5153C30.1006 32.7429 33.0963 29.6848 36.7917 29.6848ZM45.5365 45.4425C46.1189 44.8479 46.4437 44.0399 46.4382 43.1991V36.5153C46.4382 35.6762 46.1116 34.8714 45.5304 34.2781C44.9492 33.6848 44.1609 33.3514 43.3389 33.3514H36.7915C35.0799 33.3514 33.6923 34.7679 33.6923 36.5153V43.1991C33.6868 44.0399 34.0116 44.8479 34.594 45.4425C35.1764 46.0371 35.9679 46.3686 36.7915 46.363H43.3389C44.1626 46.3686 44.9541 46.0371 45.5365 45.4425ZM5.81982 43.1782V36.5153C5.81982 34.7001 6.52758 32.9596 7.78684 31.678C9.0461 30.3964 10.7533 29.6793 12.5314 29.6848H15.2201C15.9076 29.6097 16.5768 29.9418 16.9435 30.5401C17.3103 31.1384 17.3103 31.8979 16.9435 32.4963C16.5768 33.0946 15.9076 33.4266 15.2201 33.3515H12.5314C10.8164 33.3515 9.42293 34.7646 9.41165 36.5153V43.1154C9.45526 44.8521 10.8299 46.2462 12.5314 46.2792H19.1198C19.9454 46.2848 20.7389 45.9539 21.3246 45.36C21.9103 44.7661 22.2396 43.9581 22.2396 43.1154V33.2048C22.1057 32.4648 22.4259 31.7159 23.0486 31.3129C23.6712 30.9099 24.4713 30.9336 25.0699 31.3729C25.6686 31.8121 25.9456 32.5787 25.7698 33.3096V43.1782C25.7698 46.9622 22.765 50.0297 19.0583 50.0297H12.5314C8.85674 49.9519 5.89606 46.9295 5.81982 43.1782Z" fill="url(#paint0_linear)"/>
<path d="M74.0184 21.2478C74.2932 21.2478 74.5174 21.3418 74.691 21.5298C74.8646 21.7034 74.9514 21.9276 74.9514 22.2024V35.3721C74.9514 35.6758 74.8501 35.929 74.6476 36.1315C74.4596 36.334 74.2137 36.4352 73.9099 36.4352C73.7508 36.4352 73.5917 36.4135 73.4326 36.3701C73.288 36.3123 73.1723 36.2327 73.0855 36.1315L64.5588 25.0229V35.4806C64.5588 35.7554 64.4648 35.9868 64.2768 36.1749C64.1032 36.3484 63.879 36.4352 63.6042 36.4352C63.3293 36.4352 63.1051 36.3484 62.9316 36.1749C62.758 35.9868 62.6712 35.7554 62.6712 35.4806V22.2892C62.6712 21.9854 62.7652 21.7395 62.9533 21.5515C63.1558 21.349 63.4017 21.2478 63.6909 21.2478C63.8645 21.2478 64.0309 21.2839 64.19 21.3562C64.3491 21.4141 64.472 21.5009 64.5588 21.6166L73.0638 32.7468V22.2024C73.0638 21.9276 73.1506 21.7034 73.3241 21.5298C73.5122 21.3418 73.7436 21.2478 74.0184 21.2478ZM82.9882 35.3721C82.9882 35.6758 82.8797 35.929 82.6627 36.1315C82.4458 36.334 82.1926 36.4352 81.9033 36.4352C81.5851 36.4352 81.3248 36.334 81.1223 36.1315C80.9342 35.929 80.8402 35.6758 80.8402 35.3721V22.2892C80.8402 21.9999 80.9415 21.754 81.144 21.5515C81.3465 21.349 81.6068 21.2478 81.925 21.2478C82.2143 21.2478 82.4602 21.349 82.6627 21.5515C82.8797 21.754 82.9882 21.9999 82.9882 22.2892V35.3721ZM99.6867 22.1373C100.034 22.3253 100.207 22.6146 100.207 23.0052C100.207 23.2655 100.121 23.5042 99.9471 23.7211C99.7735 23.9526 99.5349 24.0683 99.2311 24.0683C99.0286 24.0683 98.8333 24.0177 98.6453 23.9164C97.7485 23.4102 96.7794 23.157 95.738 23.157C94.6532 23.157 93.6913 23.3957 92.8524 23.873C92.0279 24.3503 91.3843 25.0229 90.9214 25.8908C90.4585 26.7442 90.2271 27.7277 90.2271 28.8415C90.2271 30.042 90.4658 31.0762 90.9431 31.9441C91.4204 32.8119 92.0785 33.4773 92.9175 33.9401C93.7564 34.3885 94.6966 34.6127 95.738 34.6127C96.8083 34.6127 97.7774 34.3524 98.6453 33.8316C98.8189 33.7449 99.0069 33.7015 99.2094 33.7015C99.5276 33.7015 99.7807 33.8244 99.9688 34.0703C100.142 34.2873 100.229 34.5187 100.229 34.7646C100.229 34.9382 100.179 35.1045 100.077 35.2636C99.9905 35.4083 99.8675 35.524 99.7084 35.6107C99.1443 35.929 98.5079 36.1821 97.7991 36.3701C97.1049 36.5582 96.4178 36.6522 95.738 36.6522C94.335 36.6522 93.0404 36.3412 91.8543 35.7192C90.6827 35.0973 89.7426 34.1933 89.0338 33.0072C88.3395 31.8211 87.9924 30.4326 87.9924 28.8415C87.9924 27.3806 88.3251 26.0644 88.9904 24.8927C89.6702 23.7067 90.596 22.781 91.7676 22.1156C92.9536 21.4358 94.2771 21.0959 95.738 21.0959C97.141 21.0959 98.4573 21.443 99.6867 22.1373ZM118.773 28.8415C118.773 30.3024 118.455 31.6259 117.818 32.8119C117.196 33.998 116.328 34.9382 115.215 35.6324C114.101 36.3123 112.843 36.6522 111.44 36.6522C110.037 36.6522 108.778 36.3123 107.664 35.6324C106.551 34.9382 105.676 33.998 105.039 32.8119C104.417 31.6259 104.106 30.3024 104.106 28.8415C104.106 27.3806 104.417 26.0571 105.039 24.8711C105.676 23.685 106.551 22.752 107.664 22.0722C108.778 21.3779 110.037 21.0308 111.44 21.0308C112.843 21.0308 114.101 21.3779 115.215 22.0722C116.328 22.752 117.196 23.685 117.818 24.8711C118.455 26.0571 118.773 27.3806 118.773 28.8415ZM116.538 28.8415C116.538 27.7567 116.321 26.7803 115.887 25.9125C115.453 25.0302 114.846 24.3431 114.065 23.8513C113.298 23.3451 112.423 23.092 111.44 23.092C110.456 23.092 109.574 23.3378 108.793 23.8296C108.026 24.3214 107.426 25.0085 106.992 25.8908C106.558 26.7586 106.341 27.7422 106.341 28.8415C106.341 29.9263 106.558 30.9099 106.992 31.7922C107.426 32.66 108.026 33.3471 108.793 33.8533C109.574 34.3451 110.456 34.591 111.44 34.591C112.423 34.591 113.298 34.3451 114.065 33.8533C114.846 33.3471 115.453 32.66 115.887 31.7922C116.321 30.9099 116.538 29.9263 116.538 28.8415ZM132.153 34.4175C132.457 34.4175 132.703 34.5115 132.891 34.6995C133.094 34.8875 133.195 35.1334 133.195 35.4372C133.195 35.7265 133.094 35.9651 132.891 36.1532C132.703 36.3412 132.457 36.4352 132.153 36.4352H124.82C124.516 36.4352 124.263 36.334 124.061 36.1315C123.873 35.929 123.779 35.6831 123.779 35.3938V22.2892C123.779 21.9999 123.88 21.754 124.082 21.5515C124.285 21.349 124.545 21.2478 124.863 21.2478C125.153 21.2478 125.399 21.349 125.601 21.5515C125.818 21.754 125.927 21.9999 125.927 22.2892V34.4175H132.153ZM149.658 35.09C149.702 35.2202 149.723 35.3576 149.723 35.5023C149.723 35.7916 149.622 36.0302 149.42 36.2182C149.231 36.4063 149.007 36.5003 148.747 36.5003C148.544 36.5003 148.356 36.4424 148.183 36.3267C148.024 36.1966 147.894 36.023 147.792 35.806L146.447 32.6167H139.743L138.419 35.8277C138.347 36.0447 138.224 36.211 138.051 36.3267C137.892 36.4424 137.711 36.5003 137.508 36.5003C137.204 36.5003 136.973 36.4207 136.814 36.2616C136.655 36.1025 136.575 35.8856 136.575 35.6107C136.575 35.5529 136.59 35.4372 136.619 35.2636L142.151 21.8553C142.252 21.6238 142.39 21.4503 142.563 21.3345C142.752 21.2044 142.961 21.1537 143.193 21.1827C143.41 21.1827 143.605 21.2405 143.778 21.3562C143.952 21.472 144.075 21.6383 144.147 21.8553L149.658 35.09ZM145.623 30.6423L143.084 24.5673L140.567 30.6423H145.623ZM158.784 36.6522C157.728 36.6522 156.795 36.5075 155.985 36.2182C155.175 35.9145 154.401 35.4299 153.663 34.7646C153.36 34.5042 153.208 34.2077 153.208 33.875C153.208 33.6147 153.309 33.3833 153.511 33.1808C153.714 32.9638 153.953 32.8553 154.227 32.8553C154.473 32.8553 154.683 32.9349 154.857 33.094C155.435 33.6291 156.028 34.0269 156.636 34.2873C157.258 34.5332 157.959 34.6561 158.74 34.6561C159.652 34.6561 160.418 34.4464 161.04 34.0269C161.677 33.6075 161.995 33.0795 161.995 32.4431C161.98 31.6909 161.662 31.1124 161.04 30.7074C160.433 30.2879 159.5 29.9408 158.241 29.6659C156.751 29.3622 155.602 28.8632 154.792 28.1689C153.996 27.4746 153.598 26.5127 153.598 25.2833C153.598 24.4299 153.822 23.685 154.271 23.0486C154.719 22.3977 155.341 21.8987 156.137 21.5515C156.932 21.2044 157.829 21.0308 158.827 21.0308C159.724 21.0308 160.57 21.1754 161.366 21.4647C162.161 21.754 162.805 22.1373 163.297 22.6146C163.629 22.9039 163.796 23.2149 163.796 23.5476C163.796 23.8079 163.694 24.0394 163.492 24.2419C163.304 24.4444 163.072 24.5456 162.798 24.5456C162.595 24.5456 162.429 24.4878 162.299 24.372C161.922 23.996 161.402 23.6778 160.736 23.4174C160.071 23.157 159.435 23.0269 158.827 23.0269C157.858 23.0269 157.084 23.2294 156.506 23.6344C155.941 24.0249 155.659 24.5456 155.659 25.1965C155.659 25.9052 155.941 26.4477 156.506 26.8237C157.084 27.1998 157.938 27.518 159.066 27.7784C160.194 28.0243 161.112 28.3135 161.821 28.6462C162.544 28.9789 163.101 29.4418 163.492 30.0348C163.882 30.6278 164.078 31.4017 164.078 32.3563C164.078 33.1952 163.839 33.9401 163.362 34.591C162.899 35.2419 162.262 35.7482 161.452 36.1098C160.642 36.4714 159.753 36.6522 158.784 36.6522ZM188.95 34.6995C189.094 34.8008 189.21 34.9309 189.297 35.09C189.384 35.2347 189.427 35.3866 189.427 35.5457C189.427 35.8494 189.326 36.0736 189.123 36.2182C188.935 36.3629 188.704 36.4352 188.429 36.4352C188.154 36.4352 187.923 36.3774 187.735 36.2616C187.301 36.0157 186.946 35.618 186.672 35.0683C186.397 34.5187 186.259 33.7087 186.259 32.6383C186.259 31.9151 186.042 31.38 185.609 31.0328C185.175 30.6857 184.611 30.5121 183.916 30.5121H179.534V35.3938C179.534 35.6975 179.447 35.9507 179.273 36.1532C179.1 36.3412 178.875 36.4352 178.601 36.4352C178.268 36.4352 177.979 36.334 177.733 36.1315C177.501 35.929 177.386 35.6831 177.386 35.3938V22.2892C177.386 21.9999 177.487 21.754 177.689 21.5515C177.892 21.349 178.138 21.2478 178.427 21.2478H184.524C185.305 21.2478 186.021 21.443 186.672 21.8336C187.323 22.2096 187.843 22.7376 188.234 23.4174C188.624 24.0828 188.82 24.8349 188.82 25.6738C188.82 26.4838 188.603 27.2432 188.169 27.9519C187.735 28.6462 187.178 29.1669 186.498 29.5141C187.033 29.7889 187.453 30.1722 187.756 30.664C188.075 31.1558 188.248 31.7271 188.277 32.378C188.335 33.2025 188.4 33.7666 188.472 34.0703C188.545 34.3596 188.704 34.5693 188.95 34.6995ZM184.48 28.7113C184.842 28.6824 185.182 28.5377 185.5 28.2774C185.833 28.017 186.1 27.6699 186.303 27.236C186.505 26.7876 186.607 26.2885 186.607 25.7389C186.607 25.0446 186.39 24.4588 185.956 23.9815C185.536 23.4897 185.023 23.2438 184.415 23.2438H179.534V28.7113H184.48ZM196.558 35.3721C196.558 35.6758 196.45 35.929 196.233 36.1315C196.016 36.334 195.763 36.4352 195.474 36.4352C195.155 36.4352 194.895 36.334 194.693 36.1315C194.504 35.929 194.41 35.6758 194.41 35.3721V22.2892C194.41 21.9999 194.512 21.754 194.714 21.5515C194.917 21.349 195.177 21.2478 195.495 21.2478C195.785 21.2478 196.03 21.349 196.233 21.5515C196.45 21.754 196.558 21.9999 196.558 22.2892V35.3721ZM216.229 28.8415C216.229 30.3024 215.911 31.6259 215.275 32.8119C214.653 33.998 213.785 34.9382 212.671 35.6324C211.557 36.3123 210.299 36.6522 208.896 36.6522C207.493 36.6522 206.235 36.3123 205.121 35.6324C204.007 34.9382 203.132 33.998 202.496 32.8119C201.874 31.6259 201.563 30.3024 201.563 28.8415C201.563 27.3806 201.874 26.0571 202.496 24.8711C203.132 23.685 204.007 22.752 205.121 22.0722C206.235 21.3779 207.493 21.0308 208.896 21.0308C210.299 21.0308 211.557 21.3779 212.671 22.0722C213.785 22.752 214.653 23.685 215.275 24.8711C215.911 26.0571 216.229 27.3806 216.229 28.8415ZM213.995 28.8415C213.995 27.7567 213.778 26.7803 213.344 25.9125C212.91 25.0302 212.302 24.3431 211.521 23.8513C210.755 23.3451 209.88 23.092 208.896 23.092C207.912 23.092 207.03 23.3378 206.249 23.8296C205.482 24.3214 204.882 25.0085 204.448 25.8908C204.014 26.7586 203.797 27.7422 203.797 28.8415C203.797 29.9263 204.014 30.9099 204.448 31.7922C204.882 32.66 205.482 33.3471 206.249 33.8533C207.03 34.3451 207.912 34.591 208.896 34.591C209.88 34.591 210.755 34.3451 211.521 33.8533C212.302 33.3471 212.91 32.66 213.344 31.7922C213.778 30.9099 213.995 29.9263 213.995 28.8415ZM225.835 36.6522C224.779 36.6522 223.846 36.5075 223.036 36.2182C222.226 35.9145 221.452 35.4299 220.714 34.7646C220.411 34.5042 220.259 34.2077 220.259 33.875C220.259 33.6147 220.36 33.3833 220.563 33.1808C220.765 32.9638 221.004 32.8553 221.279 32.8553C221.524 32.8553 221.734 32.9349 221.908 33.094C222.486 33.6291 223.079 34.0269 223.687 34.2873C224.309 34.5332 225.01 34.6561 225.791 34.6561C226.703 34.6561 227.469 34.4464 228.091 34.0269C228.728 33.6075 229.046 33.0795 229.046 32.4431C229.031 31.6909 228.713 31.1124 228.091 30.7074C227.484 30.2879 226.551 29.9408 225.292 29.6659C223.803 29.3622 222.653 28.8632 221.843 28.1689C221.047 27.4746 220.649 26.5127 220.649 25.2833C220.649 24.4299 220.874 23.685 221.322 23.0486C221.77 22.3977 222.392 21.8987 223.188 21.5515C223.983 21.2044 224.88 21.0308 225.878 21.0308C226.775 21.0308 227.621 21.1754 228.417 21.4647C229.212 21.754 229.856 22.1373 230.348 22.6146C230.68 22.9039 230.847 23.2149 230.847 23.5476C230.847 23.8079 230.745 24.0394 230.543 24.2419C230.355 24.4444 230.123 24.5456 229.849 24.5456C229.646 24.5456 229.48 24.4878 229.35 24.372C228.974 23.996 228.453 23.6778 227.787 23.4174C227.122 23.157 226.486 23.0269 225.878 23.0269C224.909 23.0269 224.135 23.2294 223.557 23.6344C222.993 24.0249 222.71 24.5456 222.71 25.1965C222.71 25.9052 222.993 26.4477 223.557 26.8237C224.135 27.1998 224.989 27.518 226.117 27.7784C227.245 28.0243 228.164 28.3135 228.872 28.6462C229.595 28.9789 230.152 29.4418 230.543 30.0348C230.933 30.6278 231.129 31.4017 231.129 32.3563C231.129 33.1952 230.89 33.9401 230.413 34.591C229.95 35.2419 229.313 35.7482 228.503 36.1098C227.693 36.4714 226.804 36.6522 225.835 36.6522Z" fill="#F3F3F3"/>
<defs>
<linearGradient id="paint0_linear" x1="27.9352" y1="5.81985" x2="27.9352" y2="50.0506" gradientUnits="userSpaceOnUse">
<stop stop-color="#29F5B8"/>
<stop offset="1" stop-color="#A245FF"/>
</linearGradient>
</defs>
</svg>
