<svg width="31" height="30" viewBox="0 0 31 30" fill="none" xmlns="http://www.w3.org/2000/svg">
<path d="M17.2516 30H10.5016V10H17.2516V13.3333C18.6904 11.5254 20.8723 10.4476 23.2 10.395C27.386 10.418 30.7637 13.7823 30.7516 17.9167V30H24.0016V18.75C23.7316 16.8877 22.1146 15.506 20.2098 15.51C19.3766 15.536 18.5902 15.8963 18.032 16.5077C17.4737 17.1191 17.1919 17.9288 17.2516 18.75V30ZM7.12667 30H0.376709V10H7.12667V30ZM3.75169 6.66667C1.88774 6.66667 0.376709 5.17428 0.376709 3.33333C0.376709 1.49238 1.88774 0 3.75169 0C5.61564 0 7.12667 1.49238 7.12667 3.33333C7.12667 4.21739 6.77109 5.06523 6.13816 5.69036C5.50523 6.31548 4.64679 6.66667 3.75169 6.66667Z" fill="#FCFCFC"/>
</svg>
